<?xml version="1.0" encoding="UTF-8"?>
<svg id="Layer_1" data-name="Layer 1" xmlns="http://www.w3.org/2000/svg" viewBox="0 0 773.62 1185.61" preserveAspectRatio="none">
  <defs>
    <style>
      .cls-1 {
        fill: #000;
        stroke-width: 0px;
      }
    </style>
  </defs>
  <path class="cls-1" d="M761.02,972.8c-.34-.47-1.34-1.16-3.01-2.08,0-6.95-.1-17.25-.32-30.9-.2-13.66-.31-23.85-.31-30.56,0-24.78,1.38-41.67,4.13-50.7-1-4.63-3.43-11.06-7.27-19.27-1.39-2.98-2.65-5.48-3.78-7.51-3.46-8.32-7.7-18.97-12.75-31.97l.49-4.03,5.02-5.82v-2.7c7.86-16.44,11.81-41.55,11.81-75.34,0-25.4-5.11-53.21-15.3-83.4-6.26-18.54-11.8-31.15-17.27-38.15,5.53-7.37,11.23-19.73,17.1-37.12,10.19-30.2,15.3-58,15.3-83.4,0-33.79-3.95-58.9-11.81-75.34v-2.7l-5.02-5.82-.49-4.03c5.05-13,9.29-23.65,12.75-31.97,1.13-2.02,2.39-4.52,3.78-7.51,3.84-8.21,6.27-14.64,7.27-19.27-2.75-9.03-4.13-25.91-4.13-50.7,0-6.71.1-16.9.31-30.56.21-13.65.32-23.95.32-30.9,1.67-.92,2.67-1.61,3.01-2.08,1-.93,1.75-2.78,2.25-5.55-3.59-12.73-6.1-22.11-7.51-28.13-2.84-11.81-4.64-22.23-5.39-31.26-.3-3.59-.6-7.4-.91-11.39-.44-21.06-11.89-43.27-34.38-66.63-22.95-23.83-44.09-35.78-63.39-35.78-25.68,0-44.77,9.24-57.26,27.62h-2.05l-4.42,11.73-3.06,1.14c-9.88-11.8-17.97-21.73-24.3-29.82-1.54-2.64-3.44-5.59-5.71-8.84-6.24-8.99-11.13-14.66-14.65-17-6.86,6.44-19.7,9.66-38.53,9.66-5.1,0-12.84-.24-23.23-.72-10.37-.5-18.2-.74-23.49-.74-.7-3.91-1.22-6.25-1.58-7.03-.71-2.34-2.12-4.1-4.22-5.27-9.68,8.39-16.81,14.26-21.38,17.57-8.98,6.65-16.89,10.85-23.76,12.61-2.99.76-6.15,1.55-9.5,2.34-2.73.62-5.08,1.55-7.11,2.7-2.17-1.35-4.74-2.41-7.77-3.1-3.35-.79-6.52-1.57-9.5-2.34-6.86-1.76-14.78-5.96-23.76-12.61-4.58-3.31-11.71-9.18-21.38-17.57-2.11,1.17-3.51,2.93-4.22,5.27-.35.79-.88,3.12-1.58,7.03-5.28,0-13.11.24-23.49.74-10.39.48-18.13.72-23.23.72-18.84,0-31.67-3.22-38.53-9.66-3.52,2.34-8.41,8.01-14.65,17-2.27,3.25-4.17,6.2-5.71,8.84-6.32,8.09-14.42,18.02-24.3,29.82l-3.06-1.14-4.42-11.73h-2.05c-12.5-18.38-31.58-27.62-57.26-27.62-19.3,0-40.44,11.95-63.39,35.78-18.31,19.02-29.3,37.28-33,54.77l-.03.04c-.05.23-.09.49-.14.73-.02.11-.04.22-.07.34-.56,2.81-1,6.14-1.29,10.04-.34,4.41-.67,8.58-1,12.51-.75,9.03-2.55,19.44-5.39,31.26-1.42,6.02-3.92,15.4-7.51,28.13.5,2.77,1.25,4.62,2.25,5.55.34.47,1.34,1.16,3.01,2.08,0,6.95.1,17.25.32,30.9.2,13.66.31,23.85.31,30.56,0,24.78-1.38,41.67-4.13,50.7,1,4.63,3.43,11.06,7.27,19.27,1.39,2.98,2.65,5.48,3.78,7.51,3.46,8.32,7.7,18.97,12.75,31.97l-.49,4.03-5.02,5.82v2.7c-7.86,16.44-11.81,41.55-11.81,75.34,0,25.4,5.11,53.21,15.3,83.4,5.98,17.72,11.79,30.2,17.42,37.52-5.68,7.29-11.54,19.84-17.59,37.74-10.19,30.2-15.3,58-15.3,83.4,0,33.79,3.95,58.9,11.81,75.34v2.7l5.02,5.82.49,4.03c-5.05,13-9.29,23.65-12.75,31.97-1.13,2.02-2.39,4.52-3.78,7.51-3.84,8.21-6.27,14.64-7.27,19.27,2.75,9.03,4.13,25.91,4.13,50.7,0,6.71-.1,16.9-.31,30.56-.21,13.65-.32,23.95-.32,30.9-1.67.92-2.67,1.61-3.01,2.08-1,.93-1.75,2.78-2.25,5.55,3.59,12.73,6.1,22.11,7.51,28.13,2.84,11.81,4.64,22.23,5.39,31.26.33,3.93.66,8.1,1,12.51.04.5.08.95.13,1.43v.15c0,21.48,11.46,44.16,34.33,68.05,22.88,23.89,43.96,35.86,63.2,35.86,25.61,0,44.63-9.26,57.09-27.68h2.05l4.41-11.76,3.06-1.14c9.85,11.83,17.92,21.78,24.22,29.89,1.53,2.65,3.43,5.6,5.69,8.86,6.22,9.01,11.09,14.7,14.61,17.04,6.84-6.45,19.64-9.68,38.42-9.68,5.09,0,12.81.24,23.16.72,10.34.5,18.15.74,23.42.74.7,3.92,1.22,6.26,1.57,7.05.71,2.34,2.11,4.11,4.21,5.28,9.65-8.41,16.76-14.29,21.32-17.61,8.95-6.67,16.84-10.87,23.69-12.64,2.98-.76,6.14-1.55,9.48-2.34,3.28-.75,6.04-1.93,8.3-3.45,2.26,1.52,5.03,2.69,8.3,3.45,3.34.79,6.5,1.58,9.48,2.34,6.84,1.77,14.73,5.98,23.69,12.64,4.56,3.32,11.67,9.2,21.32,17.61,2.1-1.17,3.5-2.94,4.21-5.28.35-.79.88-3.13,1.57-7.05,5.27,0,13.07-.24,23.42-.74,10.35-.48,18.07-.72,23.16-.72,18.78,0,31.58,3.23,38.42,9.68,3.51-2.34,8.38-8.03,14.61-17.04,2.26-3.26,4.15-6.21,5.69-8.86,6.3-8.11,14.37-18.06,24.22-29.89l3.06,1.14,4.41,11.76h2.05c12.46,18.42,31.48,27.68,57.09,27.68,19.25,0,40.32-11.97,63.2-35.86,20.44-21.35,31.72-41.73,33.9-61.15.42-2.46.76-5.29.99-8.48.34-4.41.67-8.58,1-12.51.75-9.03,2.55-19.44,5.39-31.26,1.42-6.02,3.92-15.4,7.51-28.13-.5-2.77-1.25-4.62-2.25-5.55ZM692.05,1107.56c-10.88,7.07-24.69,10.62-41.47,10.62-8.6,0-16.3-3.92-23.1-11.76-6.79-7.84-10.19-16.57-10.19-26.17s17.68-22.87,24.47-32.22l.13-3.22-5.43-5.68c-3.62.49-26.98,16.09-41.94,37.32-17.89,25.28-27.63,38.82-29.22,40.58-3.86-2.28-9.06-7.9-15.64-16.88-6.57-8.98-9.84-15.49-9.84-19.5,0-5.59,28.38-18.16,41.51-33.55l.35-3.43c0-4.81-1.81-7.19-5.45-7.19-5.66,4.78-35.95,16.74-47.29,31.64-12.46,16.7-18.68,27.44-18.68,32.22,0,3.3,6.17,12.96,18.51,29.04.82,1.06,1.61,2.09,2.39,3.09h-30.48c-4.38,0-19.82-.57-46.31-1.74l-.54-.88v-5.28c.18-2.94.27-83.4.27-84.98,0-11.76-2.98-17.61-8.95-17.61-2.62,0-6.05.88-10.26,2.63v11.47l-1.05,1.46c1.57,8.41.88,91.91-2.11,94.09h-90.3c-2.99-2.17-3.68-85.67-2.11-94.09l-1.05-1.46v-11.47c-4.21-1.74-7.63-2.63-10.26-2.63-5.97,0-8.95,5.86-8.95,17.61,0,1.58.09,82.04.27,84.98v5.28l-.54.88c-26.49,1.17-41.93,1.74-46.31,1.74h-30.48c.78-1,1.57-2.03,2.39-3.09,12.35-16.08,18.51-25.74,18.51-29.04,0-4.78-6.22-15.52-18.68-32.22-11.34-14.91-32.68-26.35-38.34-31.14-3.64,0-4.13,3.6-4.13,8.41l-.39,2.75c13.14,15.4,31.97,26.92,31.97,32.51,0,4.01-3.28,10.52-9.84,19.5-6.58,8.98-11.78,14.6-15.64,16.88-1.59-1.76-11.32-15.31-29.22-40.58-14.96-21.23-32.37-40.41-35.99-40.91l-5.43,5.68-.47,3.09c6.79,9.35,19.12,26.58,19.12,35.94s-3.4,18.33-10.19,26.17c-6.8,7.84-14.5,11.76-23.1,11.76-16.77,0-30.59-3.55-41.47-10.62-7.69-5.06-16.08-13.92-25.14-26.54-9.48-13.26-20.22-26.94-27.12-35.18v-44.22c.93-3.94,29.07-4.86,32.66-2.78l.62-1.38,3.49,4.06c.74-5.55-3-14.48-3-17.94,0-7.88-1.66-12.99-6.67-12.99-.67,0-22.84,1.64-24.09,1.88h-2.25l-.38-.71c-.5-34.96-.74-55.33-.74-61.11v-40.22c.43,1.03.86,2.08,1.32,3.16,6.86,16.29,14.23,25.22,15.64,25.22,2.04,0-2.6-4.43,4.52-20.87,6.36-14.96,1.53-28.1,3.57-35.57,0-4.8-1.01-7.19-3.07-7.19l-1.46.46c-6.57,17.33,3.97,23.37,1.58,23.37-1.71,0-4.49-4.32-8.32-12.99-3.83-8.69-6.23-15.54-7.2-20.64.75-2.1,6.53-14.94,17.31-38.55,9.06-19.74,5.76-26.65,13.98-58.3l-6.09,11.64-1.13.46c-3.99,8.96-4.39,16.16-8.38,16.16s-7.82-4.49-11.16-13.45c-3.34-8.98-5.02-19.14-5.02-30.49,0-22.13,1.51-40.36,4.53-54.72,2.16-10.15,5.94-21.22,11.32-33.17,4.97-11,8.79-19.8,11.5-26.52.37.05.75.12,1.12.12l2.09-8.57-2.26-6.73c-.12,0-.24.03-.35.04-2.68-6.33-6.61-14.69-11.93-26.44-5.38-11.95-9.16-23.03-11.32-33.17-3.01-14.36-4.53-32.59-4.53-54.72,0-11.35,1.67-21.51,5.02-30.49,3.34-8.96,7.07-13.45,11.16-13.45s7.98,4.49,11.97,13.45l1.13.46,2.42-7.17c-.21-4.78-4.84-17.04-13.9-36.78-10.78-23.61-16.56-36.46-17.31-38.55.97-5.09,3.37-11.95,7.2-20.64,3.83-8.67,6.61-12.99,8.32-12.99,2.38,0,6.86,8.67,13.43,26l1.46.46c2.05,0,1.26-3.38,1.26-8.18-2.04-7.46-4.45-17.68-10.81-32.64-7.12-16.44-11.7-24.65-13.74-24.65-1.41,0-5.53,8.14-12.39,24.43-.45,1.08-.89,2.13-1.32,3.16v-40.22c0-5.78.24-26.15.74-61.11l.38-.71h2.25c1.25.24,28.1.35,28.78.35,5.02,0,7.51-3.93,7.51-11.81,0-3.46-.38-7.98-1.12-13.54h-4.89l-.62-1.38c-3.59,2.08-31.73,1.16-32.66-2.78v-40.82c5.33-5.76,15.03-18.03,27.18-34.96,9.08-12.59,17.5-21.43,25.21-26.48,10.91-7.05,24.77-10.59,41.59-10.59,8.63,0,16.35,3.91,23.17,11.73,6.81,7.82,10.22,16.53,10.22,26.11s-51.31,69.43-58.12,78.76l-.35,2.65,5.45,5.67c3.63-.49,60.85-62.1,75.86-83.28,17.95-25.21,27.71-38.73,29.3-40.49,3.87,2.28,9.08,7.88,15.69,16.84,6.59,8.96,9.87,15.46,9.87,19.46,0,5.57-81.64,87.07-94.82,102.43l-.35,3.42c0,4.8,1.82,7.17,5.46,7.17,5.67-4.77,89.24-85.65,100.61-100.52,12.5-16.66,18.74-27.37,18.74-32.14,0-3.29-6.19-12.93-18.57-28.97-.82-1.06-1.62-2.09-2.4-3.08h30.57c4.39,0,19.88.57,46.45,1.74l.54.88v5.27c-.18,2.93-.27,65.73-.27,67.31,0,11.73,1.72,44.45,7.71,44.45,2.63,0,6.07-.88,10.29-2.62l1.27-38.32,1.05-1.45c-1.58-8.39-.88-74.22,2.12-76.39h43.21l.18.4h45.4c3,2.17,3.69,68,2.12,76.39l1.05,1.45-2.81,41.37c4.22,1.74,7.66,2.62,10.29,2.62,5.99,0,11.79-35.77,11.79-47.5,0-1.57-.09-64.37-.27-67.31v-5.27l.54-.88c26.57-1.17,42.06-1.74,46.45-1.74h30.57c-.78,1-1.58,2.02-2.4,3.08-12.38,16.04-18.57,25.68-18.57,28.97,0,4.77,6.24,15.49,18.74,32.14,11.37,14.87,55.22,66.42,60.89,71.2,3.65,0,5.46-2.37,5.46-7.17l-.35-3.42c-13.17-15.36-55.09-67.53-55.09-73.1,0-4,3.29-10.5,9.87-19.46,6.6-8.96,11.82-14.56,15.68-16.84,1.59,1.75,11.36,15.27,29.3,40.49,15.01,21.18,70.7,82.19,74.34,82.68l3.1-8.32-.35-2.65c-6.81-9.33-54.25-66.17-54.25-75.5s3.41-18.29,10.22-26.11c6.82-7.82,14.55-11.73,23.17-11.73,16.82,0,30.68,3.54,41.59,10.59,7.71,5.05,16.13,13.89,25.21,26.48,12.34,17.17,21.68,29.28,26.95,34.92v40.46c-.93,3.94-29.07,4.86-32.66,2.78l-.62,1.38h-4.89c-.74,5.55,4.84.43,4.84,3.89,0,7.88,2.5,11.81,7.51,11.81.67,0,21.56,9.53,22.82,9.29h2.25l.38.71c.5,34.96.74,55.33.74,61.11v40.22c-.43-1.03-.86-2.08-1.32-3.16-6.86-16.29-16.6-27.51-18.01-27.51-2.04,0-1,11.29-8.12,27.73-6.36,14.96-2.26,20.49-4.3,27.95,0,4.8,1.01,7.19,3.07,7.19l1.46-.46c6.57-17.33,2.73-20.33,5.11-20.33,1.71,0,4.49,4.32,8.32,12.99,3.83,8.69,6.23,15.55,7.2,20.64-.75,2.1-6.53,14.94-17.31,38.55-9.06,19.74-16.88,26.89-17.09,31.67l2.42,7.17,1.13-.46c3.99-8.96,10.42-18.11,15.15-8.33,1.68,3.46,7.82,4.49,11.16,13.45,3.34,8.98,5.02,19.14,5.02,30.49,0,22.13-1.51,40.36-4.53,54.72-2.16,10.14-5.94,21.22-11.32,33.17-7.44,16.44-12.35,28.1-14.72,34.98l2.26,6.73c.65,0,1.3-.1,1.95-.25,2.31,6.61,5.58,15.38,10.68,26.65,5.38,11.95,9.16,23.03,11.32,33.17,3.01,14.36,4.53,32.59,4.53,54.72,0,11.35-1.67,21.51-5.02,30.49-3.34,8.96-7.07,13.45-11.16,13.45s-16.96-26.46-20.95-35.42l-1.13-.46-2.42,7.17c.21,4.78,13.83,39.01,22.89,58.76,10.78,23.61,16.56,36.46,17.31,38.55-.97,5.09-3.37,11.95-7.2,20.64-3.83,8.67-6.61,12.99-8.32,12.99-2.38,0,6.3-4.17-.27-21.5l-1.46-.46c-2.05,0-3.07,2.39-3.07,7.19,2.04,7.46,1.78,17.34-.55,29.13-3.44,17.43,11.7,24.65,13.74,24.65,1.41,0,5.53-8.14,12.39-24.43.45-1.08.89-2.13,1.32-3.16v40.22c0,5.78-.24,26.16-.74,61.11l-.38.71h-2.25c-1.25-.24-12.68-.35-13.35-.35-5.02,0-7.51,3.93-7.51,11.81,0,3.46.38,7.98,1.12,13.54h4.89l.62,1.38c3.59-2.08,16.31-1.16,17.23,2.78v43.86c-5.25,5.63-15.2,18.24-27.56,35.54-9.06,12.62-17.45,21.48-25.14,26.54Z"/>
</svg>