<?xml version="1.0" encoding="UTF-8"?>
<svg id="Layer_1" data-name="Layer 1" xmlns="http://www.w3.org/2000/svg" viewBox="0 0 841.89 1190.55">
  <defs>
    <style>
      .cls-1 {
        fill: #000;
      }

      .cls-1, .cls-2 {
        stroke-width: 0px;
      }

      .cls-2 {
        fill: #929497;
      }
    </style>
  </defs>
  <path class="cls-1" d="M369.45,1110.27l-10.26-13.97-1.43-9.74c25.33-71.04,38.17-133.02,38.17-184.2v-297.77c-1.42-4.29-2.63-8.7-3.63-13.13-9.17-40.75-13.82-78.84-13.82-113.19,0-46.4,3.59-80.2,10.96-103.35l5.16-6.13,1.09-.57c-.02-10.94-.04-21.81-.06-32.44-1.76-2.68-3.52-5.24-5.23-7.74-5.16-7.51-9.62-14-11.49-20.27l-.39-4.02c.42-4.26,1.94-13.37,10.31-43.24,1.46-5.22,3.65-10.28,6.52-15.07-.04-7.9-.08-14.24-.12-19-1.76,0-3.8-.01-6.16-.01-2.83,0-7.19-.07-13.34-.21-6.27-.14-10.56-.21-13.51-.21-22.2,0-32.45,3.73-37.14,6.86l-7.7,1.6-5.56-1.01-6.65-4.2c-16.53-22.97-19.02-26.97-20.06-28.92l-1.12-3.41-.4-2.71.09-3.55c-16.3,13.66-39.5,34.18-55.8,49.69,1.35.92,2.69,1.81,4.01,2.69l2.67,14.92c-7.04,9.66-9,12.13-10.06,13.36l-.3.33c-5.33,5.62-11.32,9.36-17.82,11.13l-3.44.35c-9.86-.64-18.5-6.19-25.66-16.51-6.07-8.69-9.15-17.63-9.15-26.55,0-13.62,3.98-26.62,11.84-38.64l.08-.13c3.53-5.23,8.18-10.78,13.83-16.5,18.5-22.49,71.09-70.59,89.19-83.94,22.93-16.97,39.62-24.88,52.52-24.88h23.67c9.21,0,20.26,3.6,33.79,11.01,10.68,5.81,24.9,15.18,24.9,29.3l-.23,2.21-.64,2.96-2.74,5.12c-2.91,2.99-5.62,5.84-8.12,8.56.29.22.58.43.86.65h3.75c7.81,0,12.23-.91,14.56-1.67l3.27-.52h18.56l3.27.52c2.33.76,6.75,1.67,14.56,1.67h3.75c.28-.22.57-.43.86-.65-2.5-2.72-5.21-5.57-8.12-8.56l-2.74-5.12-.64-2.96-.24-2.21c0-14.12,14.22-23.49,24.92-29.31,13.5-7.39,24.56-10.99,33.77-10.99h23.67c12.89,0,29.59,7.91,52.53,24.88,11.39,8.41,36.13,30.33,57.64,51.07l25.9,21.67c11.57,9.99,20.03,19.05,25.87,27.7l.08.13c7.86,12.02,11.84,25.02,11.84,38.64,0,8.92-3.08,17.85-9.16,26.56-7.16,10.29-15.79,15.85-25.65,16.49l-3.44-.35c-6.5-1.77-12.5-5.51-17.82-11.13l-.31-.34c-1.07-1.23-3.02-3.69-10.06-13.35l2.67-14.92c.08-.06.17-.11.25-.17-16.18-15.57-41.17-37.74-58.44-52.22l.09,3.56-.4,2.71-1.12,3.42c-1.04,1.95-3.53,5.96-20.05,28.92l-6.65,4.2-5.56,1.01-7.7-1.6c-4.69-3.13-14.94-6.85-37.14-6.85-2.95,0-7.24.07-13.51.21-6.15.14-10.51.21-13.33.21-3.16,0-5.74,0-7.84.02l-.03.34c.01-.05.02-.12.03-.19-.1.67-.44,4.08-.87,20.49,2.41,4.31,4.28,8.81,5.57,13.42,8.37,29.87,9.89,38.99,10.31,43.25l-.39,4.02c-1.87,6.27-6.32,12.76-11.48,20.27-1.78,2.59-3.6,5.24-5.42,8.02-.11,10.29-.22,20.98-.33,31.93l1.54.8,5.16,6.13c7.38,23.15,10.96,56.95,10.96,103.35,0,34.36-4.65,72.44-13.82,113.19-1.4,6.23-3.26,12.41-5.52,18.39v.08c-.04,6.97-.07,12.71-.1,16.93-.42,39.73-.42,94.77,0,163.63.75,82.01,1.12,123.19,1.12,125.84,0,31.98-10.96,72.73-32.59,121.12-23.85,53.33-43.97,77.11-65.22,77.11l-8.46-4.28Z"/>
  <path class="cls-2" d="M540.29,86.5c10.28,0,25.71,7.6,46.28,22.82,10.89,8.04,35.59,29.91,56.86,50.44l26.06,21.81c10.75,9.28,18.76,17.82,24.03,25.62,6.76,10.33,10.13,21.3,10.13,32.9,0,6.74-2.42,13.6-7.27,20.55-5.28,7.59-11.18,11.6-17.72,12.02-4.63-1.26-8.96-4-12.96-8.23-1.27-1.47-4.43-5.69-9.5-12.65,3.62-2.4,7.22-4.93,10.83-7.44-20.27-20.97-76.91-70.63-87.6-76.94-3.47-2.06-6.96-3.85-10.47-5.39-1.6,2.27-3.41,4.8-5.44,7.64,6.08,6.74,11.69,12.75,16.66,17.83l1.08,2.04.64,3.17-.4,2.71c-.78,1.46-3.63,5.93-19.31,27.72l-5.56,1.01c-8.58-5.72-23.03-8.62-42.97-8.62-3.02,0-7.39.07-13.75.21-6.1.14-10.39.21-13.1.21-13.18,0-16.7.13-17.72.21-.16,0-.29.03-.44.04v8.53c-.4,1.98-.77,11.03-1.12,25.12,2.45,3.91,4.6,8.4,6.04,13.51,6.07,21.66,9.38,35.47,9.97,41.43-2.08,6.98-9.86,16.38-17.3,28.15-.15,13.16-.29,27-.42,41.23l2.25,1.36,5,2.6c6.97,21.86,10.47,55.23,10.47,100.16,0,33.77-4.53,70.74-13.56,110.88-1.54,6.84-3.52,13.04-5.76,18.71-.04,7.88-.08,14.3-.11,18.92-.42,39.93-.42,94.53,0,163.76.74,81.21,1.11,123.13,1.11,125.78,0,30.63-10.54,69.55-31.67,116.84-21.13,47.25-39.66,70.89-55.64,70.89l-10.26-13.97c25.87-72.56,38.78-135.16,38.78-187.73v-299.49c-1.47-4.28-2.79-8.84-3.89-13.71-9.03-40.15-13.56-77.11-13.56-110.88,0-44.93,3.5-78.3,10.47-100.16l5-2.6,1.76-1.06c-.03-14.1-.05-28.15-.08-41.76-7.39-11.66-15.08-20.97-17.15-27.91.58-5.97,3.9-19.77,9.97-41.43,1.61-5.73,4.11-10.68,6.92-14.89-.08-17.63-.17-29.54-.27-32.38-1.88-.07-6.25-.14-16.53-.14-2.71,0-6.99-.07-13.1-.21-6.36-.15-10.73-.21-13.75-.21-19.93,0-34.39,2.9-42.97,8.62l-5.56-1.01c-15.68-21.8-18.53-26.26-19.31-27.72l-.4-2.71.64-3.17,1.08-2.04c4.98-5.1,10.58-11.1,16.66-17.83-2.03-2.84-3.83-5.37-5.44-7.64-3.51,1.54-7.01,3.33-10.48,5.4-10.26,6.06-62.9,52.1-85.01,74.31,4.88,3.46,9.76,6.81,14.65,10.07-5.07,6.96-8.22,11.18-9.5,12.65-4,4.22-8.33,6.96-12.96,8.23-6.54-.42-12.45-4.43-17.72-12.02-4.85-6.95-7.27-13.81-7.27-20.55,0-11.6,3.37-22.56,10.13-32.9,3.26-4.83,7.58-9.94,12.94-15.34,17.58-21.55,70.21-69.69,87.61-82.53,20.57-15.22,36-22.82,46.28-22.82h23.67c7.33,0,16.91,3.23,28.75,9.72,12.96,7.05,19.44,13.74,19.44,20.09l-.64,2.96c-6.63,6.81-12.16,12.86-16.62,18.17,5.43,2.97,9.79,5.92,13.13,8.87h7.5c7.56,0,13.43-.75,17.83-2.19h18.56c4.39,1.44,10.27,2.19,17.83,2.19h7.5c3.34-2.95,7.71-5.9,13.13-8.87-4.46-5.31-9.99-11.36-16.62-18.17l-.64-2.96c0-6.35,6.48-13.04,19.44-20.09,11.84-6.48,21.42-9.72,28.75-9.72h23.67M678.34,235.45c2.08-2.46,3.16-4.92,3.16-7.39,0-11.17-2.63-20.03-7.9-26.58-5.89-7.38-14.34-11.07-25.3-11.07l-3.31-17.4c-18.97-17.41-41.62-37.09-54.71-47.38.08.56.18,1.11.18,1.68,0,5.96-4.79,11.4-12.64,15.57,3.56,2.36,7.24,4.9,11.16,7.8,14.16,10.45,71.04,60.95,89.35,84.76M201.27,230.86c21.31-25.17,72.33-70.34,85.63-80.16,3.73-2.76,7.24-5.19,10.64-7.46-8.26-4.22-13.33-9.79-13.33-15.92,0-.21.06-.42.07-.64-11.43,9.09-29.21,24.45-45.64,39.29l-4.65,24.44c-10.96,0-19.41,3.69-25.3,11.07-5.28,6.55-7.9,15.4-7.9,26.58,0,.93.18,1.86.48,2.8M437.95,176.92c1.45-1.41,2.96-2.63,4.52-3.67-.8-2.96-2.3-6.73-4.52-11.35-2.22,4.62-3.71,8.39-4.52,11.35,1.55,1.04,3.06,2.26,4.52,3.67M465.06,186.88h19.34c-4.51-5.52-10.36-11.99-17.41-19.27-6.4.51-11.52,1.64-15.24,3.43-.09.1-.16.2-.24.31l3.94,2.76,1.4,4.94c-.13.3-.41.95-3.59,7,3.29.54,7.19.84,11.8.84M391.5,186.88h19.34c4.61,0,8.51-.3,11.8-.84-3.17-6.05-3.46-6.71-3.59-7l1.4-4.94,3.94-2.76c-.09-.1-.15-.2-.24-.31-3.71-1.79-8.84-2.92-15.24-3.43-7.05,7.28-12.91,13.75-17.41,19.27M540.29,65.5h-23.67c-11.01,0-23.69,4.01-38.79,12.27h0c-7.52,4.09-30.41,16.55-30.41,38.53l.47,4.42.56,2.58-1.23-.2h-18.56l-1.23.2.56-2.58.47-4.42c0-21.99-22.89-34.44-30.41-38.53-15.09-8.26-27.78-12.27-38.79-12.27h-23.67c-15.26,0-33.93,8.56-58.77,26.94-18.34,13.54-71.53,62.18-90.73,85.33-5.96,6.07-10.92,12.01-14.73,17.67l-.17.26c-8.99,13.75-13.55,28.69-13.55,44.39,0,11.11,3.72,22.07,11.05,32.57,11.29,16.24,24.49,20.36,33.58,20.95l6.88-.69c8.38-2.28,16.02-7.01,22.69-14.04l.61-.67c1.45-1.67,3.74-4.61,10.62-14.06l-3.63-20.27c11.88-11.14,26.23-23.93,38.74-34.74,2.32,3.54,7.17,10.54,18.47,26.25l13.3,8.4,5.56,1.01,15.4-3.19c1.79-1.19,9.34-5.09,31.31-5.09,2.86,0,7.08.07,13.27.21,3.72.09,6.81.15,9.31.18.01,1.77.02,3.7.03,5.78-2.62,4.8-4.67,9.82-6.12,14.99-8.5,30.34-10.15,40.02-10.65,45.06l.77,8.04c2.34,7.86,7.23,14.98,12.89,23.22,1.12,1.63,2.26,3.28,3.39,4.97.02,8.53.04,17.21.05,25.93l-5.75,6.83c-7.71,24.19-11.46,59.04-11.46,106.54,0,35.13,4.73,73.99,14.07,115.49.94,4.2,2.08,8.38,3.38,12.48v296.11c0,49.98-12.64,110.77-37.56,180.68l2.86,19.48,10.26,13.97,16.93,8.57c14.93,0,28.81-8.43,42.41-25.77,10.42-13.29,21.02-32.11,32.4-57.55,22.55-50.45,33.5-91.47,33.5-125.41,0-1.7-.12-16.6-1.12-125.92-.42-68.79-.42-123.76,0-163.4v-.08c.03-3.86.06-8.99.09-15.17,2.13-5.88,3.9-11.91,5.27-17.99,9.34-41.51,14.07-80.36,14.07-115.49,0-47.5-3.75-82.35-11.46-106.54l-6.17-7.32c.08-8.73.17-17.14.26-25.13,1.21-1.8,2.42-3.56,3.61-5.29,5.66-8.24,10.55-15.36,12.89-23.21l.77-8.04c-.49-5.05-2.15-14.73-10.64-45.05-1.26-4.48-2.97-8.85-5.11-13.08.09-3.09.17-5.61.25-7.68,2.8-.02,6.59-.09,11.48-.2,6.19-.14,10.4-.21,13.27-.21,21.98,0,29.52,3.9,31.31,5.09l15.4,3.19,5.56-1.01,13.3-8.4c11.26-15.65,16.14-22.69,18.47-26.25,14.61,12.62,31.68,27.91,44.22,39.92l-2.7,15.1c6.89,9.46,9.17,12.39,10.62,14.06l.61.67c6.67,7.03,14.3,11.76,22.68,14.04l6.88.69c9.08-.59,22.29-4.71,33.6-20.99,7.31-10.47,11.03-21.43,11.03-32.54,0-15.7-4.56-30.63-13.55-44.39l-.17-.26c-6.36-9.43-15.43-19.17-27.71-29.77l-.25-.21-25.49-21.33c-21.73-20.93-46.76-43.09-58.44-51.71-24.82-18.37-43.5-26.93-58.75-26.93h0Z"/>
</svg>