<?xml version="1.0" encoding="UTF-8"?>
<svg id="Layer_1" data-name="Layer 1" xmlns="http://www.w3.org/2000/svg" viewBox="0 0 841.89 1190.55">
  <defs>
    <style>
      .cls-1 {
        fill: #000;
      }

      .cls-1, .cls-2 {
        stroke-width: 0px;
      }

      .cls-2 {
        fill: #929497;
      }
    </style>
  </defs>
  <path class="cls-1" d="M397.89,1047.2l-9.39-.96c-8.15-5.21-19.28-14.08-33.1-26.37-14.05-12.46-23.92-22.18-30.16-29.72l-2.41-6.69c0-10.93,7.72-18.27,19.2-18.27,5.84,0,11.88,3.4,20.84,11.74,4.34,4.03,6.68,5.54,7.62,6.06,13.2-.78,55.91-15.23,55.91-38.83,0-29.01-.65-594.92-1.8-611.11-1.23-17.37-1.85-30.69-1.85-39.59,0-7.32.33-10.21.58-11.75l.36-.73c-5.49-.12-11.95-.32-18.26-.51-7.94-.25-16.1-.5-20.16-.5-15.69,0-29.79-4.83-41.93-14.36-3.09-2.41-5.84-4.98-8.25-7.7.31,2.57.45,4.81.41,6.74-.21,11.88-7.42,14.65-10.51,15.28-1.42.29-2.89.44-4.36.44-3.27,0-6.69-.73-10.18-2.16-1.23,4.87-2.68,8.41-4.49,11.03l-12.95,3.58c-6.5-2.93-12.6-9.26-18.99-19.88-.24,1.74-.47,3.42-.69,5.01-1.39,10.21-1.83,13.25-2.72,15.5l-11.34,6.5-26.03-3.98-8.86-9.32c-1.05-10.36-1.32-46.65-1.23-74.58.15-52.71,1.45-57.43,2.15-59.97l9.37-7.69,23.97-1.72,10.37,6.26c1.49,3.39,2.79,6.91,3.87,10.45.86,2.82,1.6,5.7,2.2,8.59.58,1.02,1.29,1.83,2.12,2.42,1.61,1.14,3.55,1.38,4.9,1.38,2.1,0,4.34-.55,6.52-1.59,3.08-2.28,5.3-5.37,7.28-8.11,3.04-4.21,6.81-9.46,13.88-9.46,1.44,0,2.87.25,4.24.74h.02c.07.01.17.01.28.01.98,0,2.42-.13,4.08-.28,1.55-.14,3.31-.3,5.29-.4,3.87-.21,7.59-.32,11.05-.32,9.36,0,17.15.74,23.69,2.26,5.42-1.6,11.05-2.41,16.81-2.41,5.43,0,13.13.58,23.53,1.76,11.36,1.3,17.25,1.57,20.2,1.57,5.27,0,18.1-.38,28.29-.92l18.3-2.33,6.26,1.15c15.95,8.49,28.19,11.76,36.29,13.92,2.35.63,4.4,1.18,6.21,1.76h.04c45.98,13.48,67.16,23.82,83.94,40.99,27.2,27.82,50.35,57.13,64.99,76.82,7.32,9.85,14.28,19.7,19.61,27.74,8.09,12.22,8.92,14.47,8.72,18.08-.57,10.33-8.21,17.01-19.45,17.01h0c-.59,0-1.2-.02-1.83-.05-4.18-.23-7.52-1.72-21.99-15.03-1.47-1.35-3.67-3.69-7-7.24-64.33-68.45-99.88-81.46-115.03-85.18-8.33,6-9.61,8.24-6.56,15.6l-1.41,10.45c-6.69,8.61-10.81,16.03-12.25,22.06l-.1.37c-.86,3.1-1.89,10.11-1.89,25.98,0,31.19.3,610.23.87,627.51,3.14,29.5,10.56,38.2,14.71,40.76l3.54,14.26c-3.05,5.19-9.22,8.23-21.77,14.08-8.22,3.83-17.53,8.17-24.17,12.91-11.6,8.3-37.72,13.41-65.74,18.34-5.78,1.02-12.33,2.17-13.86,2.65.06-.02.12-.04.17-.06Z"/>
  <path class="cls-2" d="M259.43,153.16c1.2,2.73,2.39,5.84,3.45,9.31.98,3.2,1.69,6.2,2.22,8.94.97,2.17,2.78,5.23,6.08,7.57,3.14,2.22,6.95,3.31,10.98,3.31s8.06-1.04,11.95-3.07c9.14-6.29,12.13-16.09,15.72-16.09.23,0,.47.04.71.13,1.06.46,2.33.62,3.84.62,2.59,0,5.87-.48,9.93-.7,3.79-.21,7.27-.3,10.48-.3,10.89,0,18.56,1.1,24.02,2.69,5.21-1.88,10.73-2.85,16.47-2.85,5.04,0,12.35.55,22.35,1.69,9.51,1.09,16.71,1.64,21.39,1.64,5.41,0,18.49-.37,29.24-.95l18.68-2.38c21.83,11.63,37.27,14.1,44.49,16.5,0,0,0,0,0,0,0,0,.02,0,.02,0,44.05,12.91,64.18,22.7,79.38,38.24,50.26,51.41,90.47,112.34,90.34,114.73-.26,4.71-3.25,7.09-8.97,7.09-.41,0-.82-.01-1.26-.04-1.49-.08-6.65-4.17-15.46-12.27-8.71-8.01-72.39-83.74-131.42-95.95-9.46,6.81-21.24,13.32-13.99,30.87-7.59,9.76-12.35,18.43-14.17,26.06-1.52,5.49-2.27,15.08-2.27,28.79,0,29.26.3,620.68.89,628.31,2.75,26.21,9.3,42.5,19.68,48.9-3.05,5.19-28.07,13.11-42.99,23.77-14.92,10.68-70.66,17.22-77.06,19.66-7.63-4.87-18.23-13.32-31.77-25.37-13.58-12.03-23.25-21.56-29.05-28.57,0-5.17,2.9-7.77,8.7-7.77,2.75,0,7.29,2.98,13.69,8.93,6.4,5.93,10.97,8.91,13.73,8.91,14.95,0,67.46-16.46,67.46-49.36,0-8.54-.6-594.48-1.82-611.85-1.23-17.37-1.82-30.32-1.82-38.85,0-4.87.15-8.24.45-10.06l.45-.46,13.21-12.25c-2.05,0-4.3-.02-6.78-.04-2.87-.02-6.02-.04-9.46-.05-6.24-.02-15.98-.32-25.39-.61-8.38-.26-16.3-.51-20.44-.51-13.28,0-25.2-4.08-35.44-12.11-10.96-8.55-16.52-19.02-16.52-31.11,0-3.93.81-8.12,2.37-12.51-4.78,1.76-8.6,2.93-11.42,3.51-.7.14-1.45.19-2.16.19-1.56,0-2.89-.24-2.89-.24l-5.01,4.34c3.18,3.29,3.92,5.43,4.96,10.44.44,2.13,1.18,5.33,2.2,9.57l1.87,9.09c2.49,12.09,2.38,18.46-.34,19.02-.73.15-1.47.22-2.24.22-2.13,0-4.44-.57-6.93-1.69-3.65-7.82-6.37-13.92-8.17-18.4-.95,2.46-2.17,8.24-3.62,17.47-1.26,8.06-2.78,13.4-4.58,16-6.76-3.05-14.36-13.77-22.8-32.07l-.11-.52c1.51-17.4,2.83-10.18,3.8-18.9-2.33-1.38-3.36-2.12-3.08-2.18-3.22.66-6,7.72-8.33,21.21-3.06,17-5.01,36.37-5.97,38.79l-26.03-3.98c-.85-8.39-1.28-39.34-1.17-73.5.1-34.2.69-53.28,1.78-57.22l23.97-1.72M378.47,245.14c.64,0,2.48-.35,5.66-3.63,3.4-3.51,3.57-5.24,3.57-5.55s-.25-3.42-8.77-14.53c-6.98-9.13-9.41-14.13-10.18-17.27-2.59.3-5.09.62-7.4,1.02-2.45,4.23-3.65,8.67-3.65,13.44,0,4.44.46,6.26.67,6.87l1.45,2.28c.55,2.04,2.36,5.59,7.8,10.85,4.31,4.22,8.15,6.53,10.84,6.53M444.27,236.31c3.94,0,5.92-3.35,5.92-10.06v-3.2c0-2.44-1.9-5.41-5.69-8.91-3.79-3.5-6.92-5.26-9.37-5.26-1.23,0-2.9,1.08-5.02,3.2-2.12,2.14-3.2,3.81-3.2,5.04,0,3.35,2.05,7.38,6.18,12.11,4.09,4.72,7.85,7.09,11.2,7.09M293.28,248.28c1.94,0,4.56-2.16,5.42-6.01,1.18-5.23,1.36-9.85.56-13.76-.84-4.05-2.49-6.08-4.97-6.08-.34,0-.7.04-1.07.12l-1.47.3c-1.12.23-2.03,2.73-2.72,7.5-.69,4.77-.75,8.59-.16,11.46.3,1.44,1.19,3.29,2.68,5.57.4.61,1.02.91,1.74.91M257.92,132.22l-23.97,1.72-18.74,15.38c-1.06,3.84-2.37,8.62-2.53,62.73-.09,28.18.19,64.91,1.28,75.67l17.72,18.65,26.03,3.98,22.69-13.01s.04-.1.06-.14c2.68,2.2,5.43,3.92,8.27,5.2l25.9-7.17c.96-1.38,1.82-2.87,2.62-4.53,1.15.12,2.29.18,3.43.18,2.19,0,4.37-.22,6.48-.66,5.93-1.22,12.17-4.99,15.79-12.02,12.6,8.15,26.81,12.28,42.37,12.28,3.88,0,12.33.26,19.79.5h.1c2.36.08,4.75.15,7.1.22,0,.73-.01,1.48-.01,2.27,0,9.15.63,22.71,1.87,40.28,1.13,20.24,1.77,581.73,1.77,610.42,0,8.25-12,15.73-17.15,18.57-9.72,5.35-19.84,8.26-25.53,9.32-.83-.68-1.9-1.6-3.22-2.84-8.1-7.54-17.12-14.53-27.97-14.53-10.22,0-16.81,3.97-20.53,7.29-5.92,5.29-9.18,12.92-9.18,21.48l4.82,13.39c6.59,7.96,16.83,18.07,31.3,30.9,14.4,12.81,25.66,21.77,34.39,27.35l18.78,1.93c-.59.22-.96.33-.98.33,1.61-.44,7.79-1.52,12.75-2.39,30.38-5.34,56.62-10.54,70.04-20.15,5.83-4.17,14.68-8.29,22.49-11.93,12.97-6.04,21.54-10.04,26.38-18.28l-7.08-28.52c-.07-.04-6.73-4.88-9.74-32.51-.54-23.81-.85-572.37-.85-626.82,0-16.48,1.15-21.9,1.5-23.17l.19-.74c.61-2.57,2.77-8.33,10.33-18.05l2.78-20.55c42.15,14.3,88.35,63.45,104.29,80.42,3.62,3.85,5.8,6.17,7.55,7.78,13.03,11.99,19.67,17.29,28.51,17.78.82.05,1.64.07,2.42.07,7.69,0,14.27-2.12,19.56-6.3,6.23-4.93,9.92-12.25,10.38-20.63.42-7.68-2.9-13.05-10.45-24.46-5.42-8.19-12.5-18.21-19.94-28.21-14.83-19.95-38.3-49.66-65.9-77.9-17.99-18.4-41.14-29.84-88.49-43.72h-.02c-1.98-.63-4.08-1.19-6.47-1.83-8.09-2.16-19.18-5.12-34.06-13.05l-12.52-2.3-17.92,2.28c-9.97.52-22.29.88-27.35.88-2.67,0-8.14-.26-19-1.5-10.96-1.25-18.82-1.83-24.73-1.83s-11.56.71-17.12,2.11c-6.72-1.31-14.44-1.96-23.38-1.96-3.65,0-7.56.11-11.62.33-2.16.12-4.1.29-5.66.43-.65.06-1.44.13-2.08.18-1.83-.46-3.71-.69-5.6-.69-12.44,0-18.92,8.99-22.4,13.82-1.13,1.57-2.22,3.08-3.35,4.3-.35-1.32-.72-2.63-1.12-3.92-1.2-3.93-2.65-7.83-4.3-11.59l-20.74-12.52h0Z"/>
</svg>