<?xml version="1.0" encoding="UTF-8"?>
<svg id="Layer_1" data-name="Layer 1" xmlns="http://www.w3.org/2000/svg" viewBox="0 0 841.89 1190.55">
  <defs>
    <style>
      .cls-1 {
        fill: #000;
      }

      .cls-1, .cls-2 {
        stroke-width: 0px;
      }

      .cls-2 {
        fill: #939598;
      }
    </style>
  </defs>
  <path class="cls-2" d="M720.47,241.59c0-6.31-.85-10.8-21.09-50.87-19.55-40.39-25.08-46.78-32.26-50.95l-15.47-8.99-12.34,12.96c-3.74,3.93-7.34,8.36-10.75,13.25-4.88.48-13.19.95-26.99.95h-27.19l-21.99-1.06c.42-2.32.62-4.47.62-6.52,0-8.18-2.22-15.16-6.59-20.74-5.53-7.06-13.75-10.95-23.16-10.95-13.7,0-22.42,9.83-39.05,32.26-2.9,3.91-5.48,7.48-7.78,10.73l-14.15-.67-7.15,7.5c-4.53,4.75-8.84,9.72-12.91,14.89-4.01-5.08-8.26-9.97-12.72-14.65l-7.15-7.5-13.98.67c-2.33-3.31-4.97-6.95-7.94-10.96-16.63-22.43-25.35-32.26-39.05-32.26-9.4,0-17.62,3.89-23.16,10.95-4.37,5.58-6.59,12.56-6.59,20.74,0,2.08.21,4.27.64,6.62l-17.11.96h-32.09c-13.8,0-22.11-.47-26.99-.95-3.41-4.89-7-9.32-10.74-13.25l-12.34-12.96-15.47,8.99c-7.18,4.17-12.7,10.56-32.26,50.95-20.24,40.07-21.09,44.56-21.09,50.88,0,20.58,6.55,42.24,19.96,65.89-13.41,23.65-19.96,45.31-19.96,65.89,0,6.31.85,10.8,21.09,50.88,19.56,40.39,25.09,46.78,32.26,50.95l15.47,8.98,12.34-12.95c3.74-3.93,7.34-8.36,10.74-13.25,4.88-.48,13.2-.95,26.99-.95h44.58c1.8,0,3.39.05,4.78.14-.54,2.67-.8,5.12-.8,7.44,0,8.18,2.22,15.15,6.59,20.74,5.53,7.07,13.76,10.96,23.16,10.96,2.65,0,5.12-.37,7.49-1.13,3.16,120.64,8.47,364.45,8.8,379.83-.7,16.36-.68,37.46.05,62.73.63,21.76.78,33.63.76,40.1-.54-.06-1.08-.09-1.62-.12-.98-.04-1.93-.06-2.85-.06-9.4,0-17.36,2.25-23.65,6.68-8.19,5.77-12.95,14.71-13.41,25.16-.61,13.76,7.86,24.15,41.17,50.48,31.47,24.95,42.61,30.79,49.36,33.2l8.07,2.89,7.96-3.17c10.97-4.36,26.01-12.45,45.99-24.73,22.8-14.04,35.13-24.12,41.21-33.72l5.33-8.41-6-22.4-22.88-16.94c-1.64-10.33-3.57-38.51-.21-114.39l.02-.51c.07-3.01,5.53-253.58,8.77-376.63,2.38.76,4.85,1.13,7.51,1.13,9.4,0,17.63-3.89,23.16-10.96,4.37-5.58,6.58-12.56,6.58-20.74,0-2.32-.26-4.77-.8-7.44,1.39-.09,2.98-.14,4.78-.14h44.58c13.79,0,22.11.47,26.99.95,3.41,4.88,7,9.32,10.74,13.25l12.33,12.95,15.47-8.98c7.18-4.17,12.71-10.56,32.27-50.96,20.24-40.08,21.09-44.57,21.09-50.88,0-20.58-6.55-42.24-19.96-65.89,13.42-23.66,19.96-45.32,19.96-65.9Z"/>
  <path class="cls-1" d="M467.87,293.23c-5.26,5.21-12.86,8.22-22.91,8.92-.2.07-.35.2-.56.26-.73,0-1.36-.1-2.07-.12-.71.02-1.34.12-2.07.12-.21-.06-.36-.19-.56-.26-10.08-.7-17.68-3.73-22.95-8.96-1.29,6.78-2.68,14.21-4.21,22.34-.38,1.86-.8,3.65-1.21,5.44,6.06,1.15,12.39,3.25,18.98,6.36,5.28,2.48,9.28,4.89,12.02,7.24,2.74-2.35,6.74-4.76,12.02-7.24,6.57-3.1,12.88-5.2,18.92-6.35-.4-1.71-.79-3.43-1.16-5.21-1.54-8.21-2.95-15.7-4.25-22.54Z"/>
  <path class="cls-1" d="M482.17,293.37c-.02.7-.14,1.35-.14,2.06,1.67,3.64,3.76,7.67,6.23,12.06-2.47,4.39-4.56,8.42-6.23,12.06,0,7.49,1.38,14.36,4.04,20.64l-4.69-.8c-1.86.17-3.74.45-5.66.81.58,2.47,1.17,4.89,1.79,7.26,5.2,4.15,10.54,7.31,16.07,9.36,2.15.76,5.05,1.47,8.62,2.13-.02-.02-.04-.04-.06-.06,7.33,3.9,17.79,5.88,31.44,5.88,1.1,0,9.37-.71,24.85-2.14,18.76-8.48,28.15-16.78,28.15-24.92,0-9.36-12.15-19.11-36.44-29.3-24.29-10.16-46.37-15.23-66.26-15.23l-1.73.18Z"/>
  <path class="cls-1" d="M697.79,241.59c0-2.5-6.25-16.1-18.75-40.83-12.49-25.81-20.27-39.62-23.32-41.4-4.73,4.96-9.17,10.96-13.34,18.04-5.83,2.12-19.42,3.2-40.81,3.2h-27.74l-5.25-.25c-.02.09-.04.16-.06.25h-11.53c-17.49,0-28.03-3.93-31.66-11.7.29-1.77,1.19-4.75,2.71-9.02,1.52-4.23,2.29-7.43,2.29-9.54,0-6-2.36-9.02-7.07-9.02-2.51,0-9.44,7.72-20.83,23.09-6.35,8.57-11.1,15.36-14.34,20.48l-16.54-.79c-11.65,12.22-21.37,25.69-29.3,40.32-7.9-14.53-17.58-27.92-29.17-40.08l-16.39.78c-3.24-5.14-8.03-12.01-14.49-20.71-11.39-15.37-18.32-23.09-20.83-23.09-4.71,0-7.07,3.02-7.07,9.02,0,2.12.76,5.31,2.29,9.54,1.53,4.27,2.42,7.25,2.71,9.02-3.63,7.77-14.17,11.7-31.66,11.7h-11.58s0,0,0-.01h-.26s-32.73.01-32.73.01c-21.39,0-34.98-1.08-40.81-3.2-4.17-7.08-8.61-13.08-13.34-18.04-3.05,1.77-10.83,15.59-23.32,41.4-12.49,24.73-18.75,38.32-18.75,40.83,0,19.42,7.94,41.38,23.81,65.89-15.87,24.51-23.81,46.48-23.81,65.89,0,2.5,6.25,16.1,18.75,40.83,12.49,25.81,20.27,39.62,23.32,41.39,4.73-4.96,9.17-10.96,13.34-18.04,5.83-2.11,19.42-3.19,40.81-3.19h44.58c17.49,0,28.03,3.93,31.66,11.7-.29,1.77-1.19,4.75-2.71,9.02-1.52,4.23-2.29,7.42-2.29,9.54,0,6,2.36,9.02,7.07,9.02,2.51,0,9.44-7.73,20.83-23.09,2.91-3.93,5.49-7.49,7.75-10.7,2.52,71.89,10.4,435.41,10.4,435.41-.69,15.69-.7,36.31.03,61.84.74,25.53.93,41.46.65,47.83-.64,14.42-2.34,22.41-4.98,24-11.9-5.64-18.59-8.47-20.19-8.55-10.52-.46-15.94,2.9-16.26,10.12-.17,3.8,10.68,14.37,32.61,31.71,21.86,17.33,36.15,27.2,42.92,29.62,9.62-3.83,23.78-11.48,42.48-22.97,18.7-11.52,30.02-20.36,33.96-26.56l-1.38-5.14-22.91-16.96c-5.28-12.97-6.21-55.93-2.98-128.88,0,0,7.83-359.66,10.36-431.48,2.26,3.21,4.84,6.77,7.76,10.71,11.39,15.36,18.32,23.09,20.83,23.09,4.71,0,7.07-3.02,7.07-9.02,0-2.12-.76-5.31-2.29-9.54-1.53-4.27-2.42-7.25-2.71-9.02,3.63-7.77,14.17-11.7,31.66-11.7h44.58c21.39,0,34.98,1.08,40.81,3.19,4.17,7.08,8.61,13.08,13.34,18.04,3.05-1.77,10.83-15.58,23.32-41.39,12.49-24.73,18.75-38.33,18.75-40.83,0-19.42-7.94-41.38-23.81-65.89,15.87-24.52,23.81-46.48,23.81-65.89ZM595.42,288.69c29.07,10.42,43.63,22.71,43.63,36.84,0,3.71-11.05,12.56-33.14,26.51-22.09,13.96-37.36,22-45.83,24.12-13.61,3.36-31.3,5.03-53,5.03-15.1,0-29.28-2.11-42.51-6.36-10.56-3.27-17.93-7.07-22.24-11.36-4.31,4.3-11.69,8.09-22.24,11.36-13.23,4.25-27.41,6.36-42.51,6.36-21.7,0-39.39-1.66-53-5.03-8.47-2.12-23.75-10.16-45.83-24.12-22.09-13.96-33.14-22.8-33.14-26.51,0-14.13,14.56-26.42,43.63-36.84,11.77-4.25,39.21-11.3,82.28-21.21l-.56-1.06c-85.76-19.09-128.65-35.79-128.65-50.11s8.29-22.52,24.85-22.52c6.99,0,16.76,1.73,29.25,5.16,12.54,3.45,19.88,6.6,22.08,9.42-.36,1.4-2.56,3.88-6.63,7.42-4.04,3.54-6.07,6-6.07,7.42,0,6.36,13.44,14.26,40.31,23.73,26.87,9.45,47.5,14.17,61.85,14.17l5.5-1.6c-2.2-5.11-2.74-15.55-1.64-31.28l5.53-1.57c11.61,1.98,19.88,4.09,24.98,6.33,5.1-2.24,13.38-4.35,24.99-6.33l5.53,1.57c1.1,15.73.56,26.17-1.64,31.28l5.51,1.6c14.36,0,34.98-4.73,61.85-14.17,26.87-9.47,40.31-17.37,40.31-23.73,0-1.42-2.02-3.88-6.07-7.42-4.07-3.54-6.27-6.02-6.63-7.42,2.2-2.82,9.55-5.97,22.09-9.42,12.49-3.43,22.27-5.16,29.25-5.16,16.56,0,24.85,7.51,24.85,22.52s-42.89,31.02-128.65,50.11l-.56,1.06c43.07,9.9,70.5,16.95,82.28,21.21Z"/>
  <path class="cls-1" d="M398.63,340.07c2.63-6.26,4.01-13.08,4.01-20.53-1.67-3.64-3.76-7.67-6.23-12.06,2.47-4.38,4.56-8.41,6.23-12.05,0-.71-.11-1.36-.14-2.06l-1.73-.18c-19.88,0-41.97,5.07-66.26,15.23-24.29,10.18-36.44,19.93-36.44,29.3,0,8.13,9.39,16.44,28.15,24.92,15.48,1.42,23.75,2.14,24.85,2.14,13.78,0,24.3-2.02,31.64-5.99-.12.1-.21.21-.33.31,3.71-.67,6.72-1.4,8.93-2.18,5.46-2.03,10.76-5.15,15.9-9.23.66-2.48,1.3-5.03,1.9-7.63-1.89-.36-3.76-.63-5.6-.8l-4.9.83Z"/>
</svg>