<?xml version="1.0" encoding="UTF-8"?>
<svg id="Layer_1" data-name="Layer 1" xmlns="http://www.w3.org/2000/svg" version="1.1" viewBox="0 0 841.89 1190.55">
  <defs>
    <style>
      .cls-1 {
        fill: #919396;
      }

      .cls-1, .cls-2 {
        stroke-width: 0px;
      }

      .cls-2 {
        fill: #000;
      }
    </style>
  </defs>
  <path class="cls-1" d="M385.81,1116.98l-7.44-.26-6.19-4.14c-8.49-5.68-23.31-17.08-45.31-34.86-37.13-29.89-45.77-38.46-45.25-53.93.59-16.61,12.67-33.31,38.31-33.31.73,0,1.48.01,2.25.04,8.93.32,15.95,3.96,35.8,18.55,5.7,4.19,9.37,6.73,11.67,8.24,4.09-.71,6.88-3.89,7.38-18.16,2.26-64.06,9.09-488.96,1.3-700.22-11.87-1.74-32.68-3.61-43.99-4.62-5.3-.48-9.72-.88-13.44-1.23-2.17,2.45-4.73,4.89-7.74,7.29-11.43,9.08-25.27,13.68-41.13,13.68l-6.81-.06-4.34-1.64c-32.36-12.23-42.69-19-48.53-24l-29.77-25.51,45.84-23.15c-6.58-6.34-12.75-13.54-18.47-21.53l-4.87-6.82v-28.61c0-6.7,1.61-15.59,5.21-28.82,1.91-6.98,2.74-11.35,3.1-13.87l-13.04-3.3v-45.74l26.67-17.46,177.05,8.94,3.23-3.23,16.32,5.76,9.83,3.44c5.13,1.83,11.78,4.64,21.08,8.91.12.06.24.11.36.17,9.72-7.79,21.94-11.91,35.38-11.91h5.65l4.35,1.59c25.41,9.31,33.82,14.75,38.69,18.84l30.01,25.22-39.34,20.35c12.7.68,24.28,1.4,35.58,2.22,96.05,6.84,124.61,16.73,138.75,24.58l13.45,7.47v47.89l-17.39,6.18c-14.43,5.12-45.77,12.72-150.93,19.44-12.77.86-24.61,1.72-35.39,2.56-.05,1.09-.09,2.1-.13,3.05-2.09,59.45-16.3,693.25-5.92,770.46l10.24,9.1-10.84,18.5c-5.08,8.68-11.49,13.83-59.04,33.73-44.57,18.67-54.04,20.2-61.1,20.2,0,0-1.11-.02-1.11-.02Z"/>
  <path class="cls-2" d="M563.31,179.92c-17.57-1.28-34.76-2.23-51.77-3.02-8.79-4.2-13.22-11.5-13.22-21.92,0-1.72.11-4.11.33-7.15.25-3.05.36-5.23.36-6.54,0-9.63,3.22-14.45,9.72-14.45l8.71,1.67,4.7-2.43c-4.23-3.55-14.53-8.32-30.86-14.31h-1.01c-7.59,0-13.98,2.08-19.12,6.24-4.26,3.45-6.61,7.1-7.05,10.96l-1.01.3c-4.7-1.62-11.2-4.34-19.47-8.14-8.28-3.8-14.53-6.47-18.79-7.99l-10.32-3.61s-.09-.03-.14-.05l-.23-.08s-.02.02-.03.03c-.62-.2-1.26-.36-1.92-.36l-177.97-8.99-7.72,5.06v11.25c8.88,2.24,13.31,9.17,13.31,20.8,0,5.26-1.43,13.13-4.3,23.61-2.86,10.5-4.3,17.82-4.3,21.94v20.22c9.03,12.62,19.06,22.5,30.06,29.77-.08,1.97-.23,4.36-.46,7.21-.37,4.04-.54,6.93-.56,8.68-.13,12.78-4.47,19.13-13.09,19.05l-11.54-2.33-6.27,3.17c5.57,4.77,19.17,11.24,40.76,19.4h1.34c10.07.11,18.58-2.56,25.45-8.01,5.7-4.52,8.86-9.34,9.5-14.45l1.35-.39c6.21,2.22,76.83,5.91,87.76,11.07,2.94,1.39,5.65,2.64,8.2,3.8,9.14,209.29,1.44,663.08-.57,720.16-1.05,29.92-14.21,44.44-39.46,43.55-2.01-.07-9.05-4.57-21.19-13.49s-19.23-13.41-21.23-13.49c-8.81-.31-13.31,2.38-13.51,8.02-.09,2.68,11.77,13.58,35.56,32.72,21.11,17.06,35.56,28.21,43.42,33.46,4.8.17,21.87-5.88,51.21-18.17,29.35-12.27,44.85-19.87,46.58-22.82-15.97-14.19,1.72-750.87,2.94-785.77.2-5.64.67-13.45,1.41-23.41.08-1.01.15-1.95.23-2.9,16.3-1.45,35.74-2.94,58.34-4.46,75.86-4.85,123.8-10.86,143.84-17.98v-14.04c-16.89-9.38-59.54-16.5-127.96-21.37ZM294.01,166.31c4.71-2.35,15.13-3.99,31.33-4.89l40.99-.05.97-.48c2.37-1.18.48-5.86-5.6-14.04-5.53-7.91-9.81-12.61-12.75-14.09-3.69-1.84-9.77-3.39-18.3-4.66-7.03-.73-14.03-1.55-21.02-2.49l1.73-3.63c4.63-1.75,18.87-2.24,42.71-1.45,13.15.8,26.31,1.48,39.49,2.09,1.92,1.81,5.82,8.04,11.75,18.72,4.59,7.64,10.48,13.26,17.66,16.85,7.59,3.8,9.71,10.6,17.5,12.38,1.89-14.77,1.51-41.77,1.84-41.77,15.65,0,23.49,11.36,23.49,34.09,0,6.2-3.33,10.24-9.82,12.23-5.44-.09-10.82-.12-16.2-.16,0-.02,0-.04.01-.06-5.94.3-11.53-4.35-29.27-4.96-19.9-.73-34.42-.94-43.57-.59-15.55.58-26.4,2.43-32.62,5.54l-40.29-8.59ZM397.39,265.94c-14.33-.14-53.17-7.42-75.78-21.82,21.68,1.76,45.5,4.16,57.94,7.2,8.98,2.44,16.72,5.97,23.3,10.51.02.36.04.71.06,1.06-3.23,1.99-5.12,3.04-5.52,3.04Z"/>
</svg>