<?xml version="1.0" encoding="UTF-8"?>
<svg id="Layer_1" data-name="Layer 1" xmlns="http://www.w3.org/2000/svg" viewBox="0 0 841.89 1190.55">
  <defs>
    <style>
      .cls-1 {
        fill: #000;
      }

      .cls-1, .cls-2 {
        stroke-width: 0px;
      }

      .cls-2 {
        fill: #929497;
      }
    </style>
  </defs>
  <path class="cls-1" d="M357.29,997.39l-10.26-10.25-2.59-10.58c2.46-7.82,10.15-20.76,47.85-51.79,2.47-5.36,9.63-33.74,15.33-182.79,3.52-92.15,5.67-211.42,5.95-328.95-4.48.48-9.11,1.05-10.46,1.34.4-.09.7-.2.89-.28l-6.55.26c-5.2-1.48-9.86-4.55-13.94-9.17-.71,1.45-1.41,2.81-2.1,4.07l-17.19,1.85c-4.92-5.72-9.35-13.4-13.54-23.47-4.38-10.58-6.69-13.91-7.4-14.78-.95-1.03-3.54-3.52-10.73-3.69-1.19.66-5.62,3.7-14.6,16.01-8.56,11.73-16.46,19.12-24.14,22.58-1.06.48-2.26,1.02-3.99,1.56-3.24,1.03-6.71,1.55-10.29,1.55-9.77,0-20.19-3.99-27.2-10.41-7.75-7.1-8.93-14.66-10.89-27.18-.64-4.05-1.43-9.1-2.58-15.18-1.75-9.19-3.87-18.33-6.31-27.19l1.9-9.31,8.05-10.15,15.35-.65c-.27-1.28-.51-2.56-.73-3.84-1.91-11.21-1.57-19.76-1.25-28.02.4-10.25,1.48-18.33,3.08-28.05,1.86-11.27,2.8-19.69,2.8-25.04,0-3.07-.58-6.95-1.73-11.54-2.74-9.86-3.34-12.93-3.54-14.5l1.51-6.96,3.12-4.97,16.3-1.87c14.04,13.96,28.47,20.74,44.12,20.74h22.55c5.28,0,7.92,0,11.27.06,9.96.17,20.02,1.24,29.92,3.18l6,1.18c1.96.33,4.11.75,6.57,1.29l.43.08.63.76.16-.57c5.04,1.4,10.17,2.74,15.25,3.99,5.3,1.31,14.82,2.77,23.21,4.07,1.42.22,2.83.44,4.19.65,1.04-3.57,3.06-7.64,7.3-11.17,1.73-1.44,3.59-2.77,5.52-3.95.88-.57,2.99-1.82,5.97-1.82l.17.04c-.66.05-1.87.23-3.21.8l3.56-.73,3.47.73.02-.04c-1.29-.53-2.47-.71-3.14-.76l.21-.04c2.92,0,5.05,1.2,6.19,1.99l.26.15c1.37.79,3.25,1.88,5.21,3.54,3.9,3.32,5.91,6.96,6.95,10.34,4.8-1.3,9.72-2.53,15.2-3.82,10.79-2.54,21.82-4.73,32.76-6.51l2.39-.11,2.92.2c14.81,1.06,36.58,5.58,56.48,21.06,6.09,4.74,15.01,12.93,22.94,25.08,3.26,4.99,8.18,12.54,11.11,23.67,2.74,10.41,2.53,19.11,2.16,23.37-.55,6.29-2.74,18.78-11.3,31.65-7.98,12-17.54,18.23-22.68,21.57-14.01,9.12-28.72,13.43-41.45,15.29,5.66,10.89,7.08,14.72,7.67,16.97l-1.82,9.04-2.26,2.95-13.72,2.63c-.31-.19-.65-.4-1.06-.69-4.5,5.92-9.81,9.77-15.83,11.49l-6.55-.26c.2.07.49.19.89.28-1.34-.3-5.96-.86-10.43-1.34-2.29,37.46-3.44,103.26-3.44,195.94,0,47.56,2.97,237.7,7.96,270.27,3.87,3.28,8.76,5.18,14.85,5.79l9.45,10.45v18.3l-3.35,7.69-11.03,10.25-6.88,2.81c-11.54.3-46.16,11.77-145.52,64.71l-12.36-1.84ZM525.77,325.73c.53.73,1.38,1.78,2.7,3.2l.3.33c1.83,2.14,3.03,3.08,3.58,3.46,11.71-.26,22.45-5.49,32.81-15.97,5.06-5.12,14.48-14.65,14.51-27.56.01-5.83-1.82-10.17-2.71-12.26-.11-.25-.21-.5-.32-.74-2.23,8.24-8.38,14.48-16.74,20.94-8.62,6.66-17.06,13.23-25.08,19.54-5.6,4.64-8.03,7.55-9.05,9.05ZM333.32,276.92c-2.25,4.6-3.42,8.75-3.42,12.29,0,8.64,4.87,17.89,14.47,27.5,5.5,5.57,11.22,9.7,17.06,12.36,3.62-3.92,7.84-8.23,12.65-12.92-7.91-6.22-16.12-12.61-24.41-19.02l-.4-.32c-8.5-7.25-13.72-13.73-15.96-19.9ZM302.93,254.45c.14-.15.29-.29.43-.44-.17-.1-.34-.21-.5-.31.03.25.05.5.08.75Z"/>
  <path class="cls-2" d="M270,193.44c15.96,15.86,33.13,23.8,51.52,23.8h22.55c5.23,0,7.83,0,11.1.06,9.43.16,18.82,1.17,28.07,2.98l6.15,1.21c1.95.33,4.07.75,6.31,1.24l.54.11s0,0,0,0c5.05,1.4,10.23,2.76,15.54,4.06,9.42,2.32,29.43,4.85,38.29,6.57,1.72-4.04-.18-10.3,5.65-15.15,1.5-1.25,3-2.29,4.43-3.16,0,0,.28-.19.34-.19,0,0,0,0,0,0,.02,0,.22.01.44.01.28,0,.61,0,.64-.02,0,0,0,0,0,0,.05,0,.43.29.43.29,1.43.85,2.93,1.62,4.43,2.9,6.27,5.33,3.53,11.74,4.81,15.82,8.71-2.62,16.73-4.77,26.55-7.08,11.21-2.64,21.92-4.72,32.04-6.37l2.92.2c9.39.67,31.01,3.52,50.74,18.87,3.36,2.61,12.5,10.12,20.59,22.53,3.31,5.07,7.31,11.31,9.75,20.6,2.61,9.92,2.02,17.89,1.85,19.79-.25,2.87-1.49,14.58-9.58,26.75-6.64,9.99-14.55,15.25-19.67,18.58-19.92,12.97-41.08,14.8-52.66,14.85,1.42,2.48,3.04,5.42,4.9,8.93,5.67,10.63,8.84,17.28,9.54,19.95l-2.26,2.95c-1.16-.69-4.33-3.59-9.54-8.68-4.05-4.05-7.4-6.07-10.06-6.07.23,0-.46.3-2.08.88,2.19,2.65,5.32,6.65,9.37,11.97v.17c-3.7,6.24-7.98,10.07-12.83,11.45-1.85-.69-20.21-2.6-22.47-2.6-.17,0-.32-.03-.48-.06-2.81,35.33-4.21,104.43-4.21,207.36,0,44.45,2.92,251.1,8.76,275.51,5.9,6.35,13.71,10.02,23.49,11v18.3l-11.03,10.25c-18.54.48-68.62,22.48-150.18,65.94l-10.26-10.25c2.92-9.27,18.07-25.16,45.43-47.61,15.79-12.95,23.89-294.7,24.2-530.75-.38.18-.81.3-1.29.3-2.26,0-20.62,1.91-22.47,2.6-4.86-1.38-9.13-5.21-12.83-11.45v-.17c4.04-5.32,7.17-9.32,9.37-11.97-1.62-.58-2.32-.88-2.08-.88-2.66,0-6.01,2.02-10.06,6.07-2.97,2.91-5.26,5.08-6.91,6.55-1.97,4.62-3.85,8.57-5.62,11.84-4.16-4.84-8.09-11.72-11.8-20.65-3.7-8.93-6.76-14.81-9.2-17.66-4.39-4.84-10.86-7.29-19.42-7.29-4.97,0-12.4,6.78-22.29,20.33-9.8,13.42-16.35,17.57-19.98,19.2-.93.42-1.7.77-2.83,1.12-2.31.73-4.71,1.06-7.13,1.06-7.65,0-15.36-3.3-20.11-7.65-6.87-6.3-5.81-13.23-10.26-36.58-2.31-12.11-4.8-21.83-6.5-28.01,2.68-3.38,5.37-6.77,8.05-10.15,1.04,1.1,6.21,17.39,10.13,24,2.55,4.2,9.53,13.35,13.23,13.35.68,0,1.6.02,2.65.02,4.13,0,10.27-.3,11.66-3.28-4.28-5.45-9.3-12.95-13.53-22.52-4.9-11.09-6.72-20.4-7.39-24.33-1.72-10.13-1.42-17.81-1.11-25.85.38-9.75,1.38-17.27,2.95-26.75,1.96-11.89,2.94-20.81,2.94-26.75,0-3.98-.69-8.71-2.08-14.22-1.96-7.04-3.06-11.45-3.29-13.2l3.12-4.98M300.64,343.89c3.52-2.48,6.6-4.35,9.02-5.72-10.51-9.7-15.78-21.57-15.78-35.64s3.99-25.46,11.96-35.5c4.24-5.46,10.15-10.93,17.67-16.39-2.75-.47-4.99-1.03-6.68-1.67-8.66-3.29-14.33-8.21-18.43-12.14-2.96-2.84-6.81-7.05-10.51-12.84-.98,1.58-1.95,3.15-2.93,4.73,1.73,3.99,2.97,7.49,3.85,10.24,1.28,3.99,2.65,8.46,3.44,14.61.82,6.4.43,10.69-1.15,24.35-2.28,19.74-3.51,28.53-2.3,39.85.31,2.87.82,6.4,2.3,10.57,2.6,7.34,6.68,12.5,9.52,15.54M531.42,343.24c14.88,0,28.62-6.37,41.21-19.1,6.29-6.36,17.51-18.03,17.54-34.92.02-7.82-2.38-13.65-3.54-16.37-8.22-19.41-27.56-27.29-33.08-29.32-3.3-1.42-6.6-2.85-9.9-4.27,3.61,2.23,8.93,6.04,13.97,12.06,4.87,5.81,9.71,11.6,9.41,18.62-.28,6.46-4.07,11.58-13.55,18.9-8.5,6.56-16.92,13.12-25.25,19.68-9.03,7.46-13.55,13.31-13.55,17.55,0,2.32,2.03,5.66,6.11,10.03,4.08,4.76,7.63,7.14,10.63,7.14M364.54,341.37c5.87-6.85,14.17-15.3,24.88-25.34-2.09-2.29-4.77-4.8-8.07-7.52-8.34-6.56-16.75-13.12-25.26-19.68-9.04-7.72-13.55-14.01-13.55-18.9,0-5.92,3.09-11.51,9.3-16.78.24-.2.44-.38.68-.58-5.32-.06-10.11-.21-14.35-.44-1.93,2.02-3.84,4.19-5.73,6.62-8.69,11.45-13.03,21.61-13.03,30.48,0,11.58,5.85,23.22,17.54,34.92,8.66,8.75,17.85,14.5,27.59,17.23M514.4,387.59c.47,0,1.1-.41,1.91-1.21.8-.8,1.21-1.44,1.21-1.91,0-.93-.67-2.12-2-3.56-1.33-1.44-2.46-2.16-3.38-2.16h-1.21c-2.55,0-3.82.75-3.82,2.24,0,1.27.9,2.7,2.69,4.25,1.79,1.57,3.32,2.34,4.59,2.34M406.74,387.59c1.27,0,2.8-.78,4.6-2.34,1.79-1.55,2.69-2.98,2.69-4.25,0-1.5-1.27-2.24-3.82-2.24h-1.21c-.92,0-2.05.72-3.38,2.16-1.33,1.44-2,2.63-2,3.56,0,.47.41,1.1,1.21,1.91.81.8,1.45,1.21,1.91,1.21M284.81,178.55l-32.6,3.74-3.12,4.98-3.02,13.94c.28,2.12.94,5.51,3.8,15.79,1.14,4.59,1.39,7.35,1.39,8.85,0,3.29-.46,10-2.66,23.33-1.67,10.12-2.79,18.56-3.21,29.35-.29,7.39-.61,15.64.74,25.89l-11.85.5-4.27,5.37-3.79,4.77-3.8,18.63c2.36,8.59,4.42,17.46,6.12,26.37,1.13,5.91,1.87,10.66,2.53,14.84,2.08,13.25,3.72,23.71,14.17,33.29,9,8.24,21.82,13.17,34.29,13.17,4.66,0,9.19-.68,13.46-2.04,2.31-.73,3.94-1.47,5.14-2.01,9.52-4.29,18.51-12.54,28.31-25.97,4.34-5.95,7.34-9.31,9.16-11.14.82,1.37,2.57,4.63,5.39,11.42,4.62,11.13,9.62,19.73,15.28,26.31l22.66-2.43c4.64,4.3,9.87,7.29,15.65,8.93l8.46-.34c-.37,111.34-2.42,223.97-5.71,312.19-1.93,51.77-4.23,94.13-6.83,125.9-3.09,37.69-5.9,51.59-7.23,56.41-37.58,31.23-45.82,45.23-48.83,54.8l5.18,21.16,10.26,10.25,24.73,3.68c40.14-21.39,72.87-37.67,97.29-48.39,32.15-14.12,41.92-15.04,43.56-15.09l13.76-5.61,11.03-10.25,6.7-15.38v-18.3l-18.9-20.89c-2.59-.26-4.54-.79-6.06-1.46-1.18-11.38-3.22-41.37-5.11-119.42-1.43-58.82-2.18-121.85-2.18-144.74,0-84.42.96-146.41,2.85-184.87l9.06.36c7.89-2.25,14.76-7,20.48-14.15l15.59-2.99,2.26-2.95,3.64-18.09c-.44-1.69-1.14-3.73-2.46-6.76,11.47-3.07,22.19-7.78,31.81-14.04,5.36-3.49,16.52-10.76,25.7-24.56,9.85-14.82,12.38-29.27,13.01-36.56.43-4.94.68-15-2.47-26.95-3.36-12.77-9.06-21.51-12.47-26.73-8.72-13.37-18.56-22.4-25.29-27.63-21.98-17.1-45.92-22.07-62.13-23.24h-.09s-2.92-.2-2.92-.2l-4.78.22c-11.18,1.82-22.45,4.06-33.48,6.65-2.53.6-4.96,1.18-7.33,1.78-1.48-2.07-3.32-4.12-5.61-6.07-2.69-2.29-5.14-3.7-6.76-4.64l-.03-.02c-3.59-2.35-7.51-3.54-11.68-3.54l-.13.03c1.39.05,4.09.33,7.12,1.59l-.04.09-7.49-1.59-7.62,1.8-.1-.24c3.26-1.39,6.18-1.62,7.27-1.66l-.1-.02c-4.05,0-7.91,1.14-11.46,3.38-2.36,1.44-4.62,3.06-6.74,4.83-2.92,2.43-5.12,5.05-6.78,7.66-6.97-1.08-14.58-2.31-18.7-3.33-4.98-1.23-10.01-2.54-14.96-3.91l-.32,1.14-1.25-1.52-.32-.06c-2.52-.55-4.75-.99-6.8-1.34l-5.87-1.15c-10.5-2.06-21.18-3.19-31.76-3.37-3.44-.06-6.12-.06-11.45-.06h-22.55c-12.73,0-24.74-5.79-36.72-17.69h0Z"/>
</svg>