<svg width="659" height="677" viewBox="0 0 659 677" fill="none" xmlns="http://www.w3.org/2000/svg">
<g clip-path="url(#clip0_1499_71)">
<path d="M430.06 136.31C429.99 136.24 429.94 136.17 430.06 136.31Z" fill="white"/>
<path d="M600.22 308.21C581.06 294.61 557.45 281.15 530.05 268.19C523.36 265.03 515.82 263.06 507.63 262.36C501.64 261.83 493.35 261.79 490.72 267.33C489.53 269.85 490.49 272.68 499.14 281.99C500.83 283.81 502.1 285.28 503.07 286.47C495.95 284.32 490.3 283.77 485.93 284.75C485.61 284.72 485.3 284.71 485.03 284.71C481.94 284.71 470.97 288.68 432.13 315.3C430.74 316.25 425.95 319.57 423.14 321.52C427.73 314.66 432.74 305.88 438.14 295.27L438.82 293.93V292.34C438.82 289.81 438.82 289.41 433.12 276.44C429.3 267.75 428.5 262.78 428.5 260.13C428.5 256.29 429.5 252.11 431.47 247.71C431.94 246.7 434.28 242.47 438.42 235.09L439.21 233.68V224.82L437.21 225.24C436.18 222.92 434.59 219.28 432.41 214.31C427.82 203.8 426.82 198.8 426.69 196.58C431.05 199.32 441.98 202.67 459.49 206.66C482.79 211.95 500.15 214.61 511.53 214.61C527.15 214.61 541.38 212.9 554.17 209.48C566.96 206.06 573.36 202.14 573.36 197.74C573.36 196.52 567.67 194.36 556.3 191.26C544.92 188.16 539.24 185.64 539.24 183.68C539.24 183.57 539.25 183.47 539.27 183.36C545.83 183.37 551.64 183.38 556.21 183.39C562.91 185.12 569.64 186.76 576.39 188.39C584.93 190.45 597.08 189.6 600.09 189.35C599.79 189.6 599.49 189.84 599.16 190.1C595.03 193.32 592.98 195.74 592.98 197.37C592.98 198.67 598.22 200.83 608.75 203.85C619.27 206.87 627.09 208.63 632.21 209.11C635.04 208.13 634.62 206.66 630.93 204.7C628.64 203.4 627.51 202.34 627.51 201.53C627.51 200.07 629.92 197.78 634.76 194.68C639.58 191.57 642.01 189.3 642.01 187.83C642.01 185.3 636.61 182.26 625.82 178.71C628.42 177.5 630.57 176.6 632.18 175.92C639.21 172.96 643.88 167.02 643.88 167.02C656.77 144.35 661.27 127.55 657.4 116.59L651.68 100.42L626.19 85.35C615.9 79.48 606.94 75.55 599.34 73.57C589.33 71.13 579.76 71.53 570.64 74.76C565.33 76.64 560.61 80.45 556.49 86.2C551.98 92.47 550.48 98.23 551.96 103.49C554.24 106.79 557.6 109.42 562.04 111.4C563.3 111.89 566.42 112.88 571.4 114.38V116.73C571.52 118.24 571.59 119.38 571.59 120.14C571.59 121.91 559.61 138.41 558.86 143.85L553.75 144.98L553.56 144.79C552.8 144.67 551.41 144.61 549.39 144.61C548.02 144.61 546.37 144.65 544.46 144.72C542.54 144.65 540.9 144.61 539.53 144.61C537.51 144.61 536.11 144.67 535.36 144.79L535.17 144.98L530.06 143.85C529.3 138.42 540.51 121.92 540.51 120.14C540.51 119.38 540.58 118.24 540.7 116.73V113.51C540.7 109.22 539.47 107.06 537 107.06C534.53 107.06 531.98 107.45 529.32 108.2C527.55 111.12 526.29 113.38 525.53 115.03C524.26 114.26 522.18 112.38 519.27 109.34C516.74 106.69 514.46 104.97 512.44 104.22C507.13 105.73 502.46 109.91 498.42 116.73V116.92C502.84 122.74 494.67 139.99 497.06 142.89C495.29 143.52 494.53 143.85 494.78 143.85C491.87 143.85 499.8 128.75 495.37 124.33C489.68 118.76 486.21 115.6 484.95 114.84L482.48 118.06C483.08 120.37 478.13 133.48 479.11 144.61C478.74 144.61 478.38 144.61 478.05 144.61C476.03 144.61 474.63 144.67 473.88 144.79L473.69 144.98L468.58 143.85C467.82 138.42 479.03 121.92 479.03 120.14C479.03 119.38 479.1 118.24 479.22 116.73V113.51C479.22 109.22 477.99 107.06 475.53 107.06C473.07 107.06 470.51 107.45 467.85 108.2C466.08 111.12 464.82 113.38 464.06 115.03C462.8 114.26 460.71 112.38 457.8 109.34C455.27 106.69 452.99 104.97 450.97 104.22C445.66 105.73 429.4 122.8 425.35 129.62V129.8C430.63 136.75 430.3 136.52 430.07 136.29C430.35 136.61 431.54 138 435.58 142.88C433.81 143.51 433.05 143.84 433.3 143.84C430.94 143.84 428.06 142.36 424.69 139.43V119.66L423.97 85.83V77.1C423.97 51.65 425.37 40.19 426.74 35.08L429.02 34.21C429.61 34.68 430.6 35.66 432.1 37.67C434.65 41.07 436.69 42.98 438.53 43.7L440.49 44.47L445.46 36.15L444.21 29.44L443.49 28.5C436.05 18.8 429.58 10.01 424.23 2.36999L423.54 1.38999L418.8 -0.0100098L417.77 0.78999C416.54 1.74999 412.8 5.24999 394.49 24.56L394.4 24.66C393.59 25.49 392.56 26.56 391.3 27.89C389.04 30.3 387.19 31.28 385.75 30.82C385.12 30.62 384.23 30.14 383.09 29.36C381.95 28.59 381.12 28.07 380.61 27.79C380 28.76 379.65 29.4 379.55 29.72C378.84 31.93 380.02 35.01 383.07 38.95C386.12 42.89 388.64 45.18 390.62 45.81C391.52 46.1 393.68 44.64 397.08 41.42C398.61 47.74 399.69 55.4 400.31 64.36C400.12 64.96 399.94 65.54 399.75 66.16C397.06 74.6 394.91 80.25 393.3 83.1C389.74 89.28 385.48 91.58 380.53 90.01C378.82 89.46 376.56 87.76 373.76 84.89C370.96 82.02 369.08 79.61 368.11 77.68C366.49 77.16 365.39 77.8 364.82 79.59C364.31 81.17 366.43 85.74 371.16 93.29C374.93 99.49 377.98 104.07 380.31 107.02C387.61 107.14 393.35 105.78 397.54 102.93C398.69 102.16 399.77 101.24 400.78 100.19C400.78 100.49 400.78 100.78 400.77 101.09C400.69 106.34 400.63 110.55 400.61 113.75C396.22 123.26 389.27 133.73 379.86 145.01C376.67 148.92 372.31 153.86 366.71 159.91C361.37 161.07 355.23 166.41 347.62 176.46C338.97 187.89 334.94 196.62 334.94 203.93C334.94 209.67 336.13 214.95 338.49 219.61C339.81 222.34 342.22 225.78 345.83 230.04C347.68 232.23 349.22 234.17 350.41 235.84C349.12 237.84 346.97 240.99 343.39 245.9C336.9 255.03 335.43 258.89 334.87 261.24L334.27 263.74L335.43 265.88C338.75 272.02 341.52 276.48 343.9 279.49C345.63 281.65 347.97 284.03 350.88 286.63C349.34 289.02 347.37 291.82 345 294.99C340.6 300.9 337.59 305.41 335.8 308.8L334.99 310.32L335.08 312.17C335.62 322.69 342.22 331.94 354.69 339.63C363.16 344.92 371.1 347.99 378.36 348.81C380.66 350.3 383.1 351.85 385.7 353.45C391.62 357.11 397.14 360.28 402.1 362.84L402.29 362.94L402.47 363.06C416.32 372.67 433.3 384.91 452.99 399.48C454.91 401.77 457.09 404.25 459.51 406.94C456.25 404.91 451.43 402.2 445.03 398.79C433.41 392.6 413.26 377.53 410.34 376.77L407.12 379.24C407.88 380.5 411.04 383.98 416.61 389.66C421.04 394.09 436.13 409.34 436.13 412.25C436.13 412 435.81 412.75 435.17 414.53C432.27 412.13 415.01 397.12 409.2 392.7H409.01C402.19 396.74 398.01 401.42 396.5 406.72C397.26 408.74 398.97 411.02 401.62 413.55C404.66 416.46 406.54 418.54 407.31 419.81C405.66 420.57 403.39 421.83 400.48 423.6C399.72 426.26 399.34 428.81 399.34 431.28C399.34 433.75 401.5 434.97 405.79 434.97H409.01C410.52 434.85 411.66 434.78 412.42 434.78C412.99 434.78 415.08 436.01 417.82 437.71C395.25 457.58 383.83 484.79 383.83 518.87C383.83 550.08 406.2 585.04 450.32 622.77C487.31 654.38 550.16 670.37 592.39 674.82C592.94 674.98 593.5 675.15 594.05 675.3C594.05 675.3 602.45 676.07 613.08 676.13C613.16 676.13 613.24 676.13 613.32 676.13C622.57 676.17 633.45 675.66 641.97 673.64C654.34 670.71 627.31 667.79 608.25 661.94C588.6 651.99 539.6 622.64 516.14 572.56C509.31 557.98 509.98 541.53 518.12 523.19C526.28 504.85 537.77 492.19 552.59 485.25C564.98 479.45 576.48 479.06 587.08 484.05C586.37 483.97 585.73 483.93 585.16 483.93C584.48 483.93 583.9 483.93 574.13 487.22C568.42 489.12 564.77 490.37 563.18 490.97C560.99 491.8 559.18 493.22 557.8 495.21C556.42 497.22 555.75 499.11 555.75 500.97C555.75 506.07 561.71 508.63 563.89 509.56L574.92 513.36C576.06 513.76 576.89 514.11 577.5 514.4C576.69 514.85 575.49 515.43 573.72 516.16C570.95 517.3 566.62 518.79 560.86 520.61C552.74 523.16 552.5 523.38 551.88 523.96L549.84 525.88L552.6 529.68L553.37 530.03C554.03 530.33 554.93 530.74 572.36 533.8C589.6 536.83 591.55 536.83 592.28 536.83C593.48 536.83 595.33 536.5 603.39 532.57C604.79 531.88 606.03 531.25 607.16 530.68C607 530.95 606.84 531.22 606.67 531.49C602.78 538.36 598.83 545.09 594.8 551.72C604.4 557.01 610.32 560.17 612.58 561.17C619.47 563.87 625.94 564.7 631.96 563.65C639.27 559.63 643.91 551.83 645.9 540.23C647.74 529.6 646.83 520.39 643.19 512.62C636.93 499.26 627.12 488.44 613.76 480.17C606.5 475.83 597.45 471.8 586.63 468.08C584.25 465.24 578.47 459.92 564.68 450.14C566.32 449.84 567.57 449.07 568.38 447.81C569.62 445.91 567.53 441.41 561.8 433.67C556.09 425.95 551.19 420.89 546.36 417.76C542.57 415.3 538.84 413.42 535.27 412.19C533.19 411.45 530.41 410.76 526.84 410.1C525 409.76 523.4 409.43 522.04 409.1C520.99 407.82 519.37 405.77 516.89 402.5C512.24 396.47 510.01 394.34 508.57 393.14L507.05 391.87L505.39 391.33C500.64 389.78 497.11 388.76 494.62 388.25C492.83 387.89 490.76 387.62 488.44 387.46C487.19 385.93 485.76 384.09 484.17 381.96C481.21 377.99 478.87 375.08 477.01 373.04L476.18 372.13L474.94 371.37C468.92 367.67 462.58 365.81 456.06 365.81C461.88 360 470.94 353.08 483.49 344.87C488.17 341.82 492.48 339.19 496.47 336.96C501.27 338.98 507.83 341.72 516.19 345.22C527.87 350.14 537.38 354.34 544.7 357.8C555.67 362.99 563.72 365.72 568.85 366.01C570.92 366.15 574.26 365.28 578.83 363.43C582.76 361.7 587.87 361.39 594.16 362.49C603.39 366.85 612.68 379.74 622.02 401.14L625.31 403.46L629.92 404.22C631.24 401.44 629.38 395.26 624.36 385.72C616.58 370.86 601.33 355.37 578.59 339.24C577.97 338.8 577.32 338.35 576.69 337.91C581.46 339.6 585.34 340.52 588.4 340.69C591.02 340.85 594.63 339.97 599.86 337.85C603.1 336.43 607.5 336.16 612.93 337.06C621.29 341.26 630.02 353.66 638.87 373.93L639.22 374.74L643.83 378L651.52 379.27L652.55 377.1C654.38 373.22 652.65 366.64 646.93 355.77C638.95 340.53 623.22 324.51 600.18 308.17L600.22 308.21ZM359.89 184.93C360.21 184.6 360.52 184.3 360.83 184.02C362.58 184.34 364.85 184.73 367.82 185.2L370.66 185.65V188.53C370.66 195.37 370.93 204.61 371.46 216.09C361.73 213.47 357.3 205.19 357.3 190.18C357.3 189.56 357.3 187.68 359.89 184.93ZM573.08 142.53C573.08 141.14 585.65 126.69 587.61 125C589.57 123.29 591.24 122.44 592.63 122.44C593.14 122.44 593.83 122.89 594.72 123.77C595.6 124.65 596.05 125.34 596.05 125.85C596.05 126.87 583.73 141.05 582.27 142.63C580.82 144.2 579.59 144.99 578.57 144.99H577.24C574.46 144.99 573.07 144.17 573.07 142.54L573.08 142.53ZM372.79 243.44C373.2 253.32 373.41 261.21 373.41 266.99C373.41 267.03 373.41 267.07 373.41 267.11C371.26 266.1 368.99 264.71 366.61 262.89C362.88 260.12 358.47 255.9 358.47 251.4C358.49 251.38 358.94 249.28 363.26 243.2C363.96 243.13 364.71 243.13 365.55 243.18C368.57 243.41 370.13 243.52 370.22 243.52C371.09 243.52 371.94 243.48 372.79 243.43V243.44ZM358.48 302.39C358.48 299.64 358.48 294.52 367.88 294.52C368.8 294.52 370.03 294.57 371.54 294.64C370.38 302.23 368.69 308.93 366.45 314.78C361.16 310.77 358.48 306.61 358.48 302.39ZM519.61 186.49C526.72 188.6 530.28 190.68 530.28 192.72C530.28 195 527.14 197.85 520.89 201.28C513.78 205.2 506.68 207.15 499.56 207.15C475.68 207.15 463.74 200.71 463.74 187.83C463.74 187.92 464.02 186.36 464.57 183.16C476.71 183.21 491.82 183.26 506.67 183.29C513.74 184.97 518.06 186.04 519.6 186.49H519.61ZM603.14 160.92C604.46 158.56 605.94 155.85 607.59 152.76C612.4 143.74 622.55 129.58 627.21 122.33C626.73 127.36 625.42 132.6 623.28 138.06C618.79 149.46 612.09 157.08 603.15 160.92H603.14ZM586.27 88.85C595.06 85.74 602.76 85.34 609.38 87.67C616.82 90.26 622.08 95.87 625.13 104.5C626.33 107.9 627.05 111.42 627.3 115.07L627.14 114.85C625.88 115.61 622.4 118.77 616.72 124.34C612.29 128.77 597.04 143.86 594.13 143.86C594.38 143.86 593.63 143.54 591.85 142.9C594.25 140 609.26 122.74 613.68 116.93V116.74C609.64 109.92 604.96 105.74 599.66 104.23C597.64 104.99 595.36 106.7 592.83 109.35C589.92 112.39 587.84 114.27 586.57 115.04C585.81 113.39 584.55 111.12 582.78 108.21C580.72 107.63 578.73 107.27 576.79 107.13C577.39 104.92 577.99 102.71 578.62 100.5C580.22 93.95 582.77 90.07 586.26 88.84L586.27 88.85ZM516.04 125.85C516.04 125.34 516.49 124.65 517.37 123.77C518.26 122.89 518.95 122.44 519.46 122.44C520.85 122.44 522.52 123.29 524.48 125C526.44 126.7 515.83 141.15 515.83 142.53C515.83 144.17 514.44 144.98 511.66 144.98H510.72C509.39 143.48 508.03 141.96 506.89 140.74C508.68 136.44 516.04 126.68 516.04 125.84V125.85ZM454.56 125.85C454.56 125.34 455.01 124.65 455.89 123.77C456.78 122.89 457.47 122.44 457.98 122.44C459.37 122.44 461.04 123.29 463 125C464.96 126.7 454.35 141.15 454.35 142.53C454.35 144.17 452.96 144.98 450.18 144.98H448.85C447.84 144.98 446.61 144.19 445.16 142.62C443.71 141.05 454.57 126.86 454.57 125.84L454.56 125.85ZM417.29 418.77C415.58 416.81 414.73 415.14 414.73 413.75C414.73 413.24 415.18 412.55 416.06 411.66C416.94 410.78 417.63 410.33 418.14 410.33C419.16 410.33 433.34 422.65 434.92 424.11C435.2 424.37 435.45 424.62 435.69 424.87L434.48 425.6C432.6 426.74 430.77 427.91 428.99 429.12C424.29 425.27 418.34 419.99 417.29 418.77ZM468.68 589.54C454.96 570.69 448 546.52 448 517.71C448 502.2 455.91 488.21 471.5 476.13C477.24 471.69 483.26 468.07 489.52 465.28C491.09 465.88 492.78 466.56 494.59 467.3C498.64 464.15 502.79 463.11 505.96 462.35C506.21 462.28 506.56 462.24 506.98 462.21L504.94 463.17C488.89 470.69 475.46 493.56 464.64 531.82C464.64 531.82 463.17 543.25 467.49 554.05C469.19 558.29 471.81 564.85 474.63 574.04C477.46 583.24 479.84 589.91 481.77 594.03C483.25 597.19 484.87 599.99 486.6 602.44C486.6 602.44 489.93 608.35 494.9 615.27C483.47 606.28 474.69 597.67 468.69 589.54H468.68ZM611.19 520.96L608.95 520.68L607.57 520.99C602.8 523.31 598.88 524.48 595.94 524.48C594.85 524.48 591.85 524.17 583.7 522.66C583.04 522.54 582.42 522.42 581.84 522.31C586.33 520.93 588.97 520 590.32 519.31C595.45 516.76 596.53 513.42 596.53 511.07C596.53 507.07 592.06 504.7 588.05 503.06L576.13 498.67C574.71 498.11 573.71 497.63 573.01 497.26C574.95 496.24 575.89 496.13 576.21 496.13H582.28C582.46 496.13 583.61 496.24 588.65 497.51C594.59 499.04 596.44 499.34 597.39 499.43L598.12 499.5L598.81 499.24C600.49 498.61 601.98 498.03 603.31 497.49C606.22 501.28 608.86 505.69 611.22 510.73C612.57 513.61 612.68 517.07 611.56 521.11L611.2 520.95L611.19 520.96ZM550.75 430.96C551.16 431.23 552.4 432.03 553.66 434.05C554.61 435.58 554.92 436.64 554.56 437.19C554.3 437.59 553.67 438.04 551.12 437.33C550.5 437.14 548.55 436.48 543.59 434.43L538.74 432.43L539.15 433.02C535.86 430.9 532.35 428.67 528.61 426.31C531.91 421.73 538.75 423.17 550.74 430.96H550.75ZM500.81 402.79C503.43 402.76 507.14 403.14 510.11 405.07C510.11 405.09 511.41 406.13 514.5 410.14C514.4 410.4 514.24 410.64 514.03 410.89C513.24 411.77 512.84 412.24 512.82 412.27C512.17 413.26 511.74 414.33 511.48 415.46C510.58 414.89 509.71 414.34 508.83 413.78V410.99C508.83 406.7 507.6 404.54 505.14 404.54C502.68 404.54 500.12 404.93 497.46 405.68C497.33 405.9 497.2 406.11 497.08 406.32C496.06 405.67 495.06 405.04 494.08 404.41C495.12 403.32 497.38 402.77 500.82 402.78L500.81 402.79ZM476.48 383.2C478.29 384.38 481.67 386.58 479.68 389.64C479.45 390 479.09 390.46 478.61 391.04C478.1 391.67 477.75 392.12 477.58 392.38C477.35 392.74 477.16 393.12 477 393.53C469.17 388.52 463.21 384.65 458.98 381.87C460.43 381.12 462.51 380.67 465.21 380.51C469.56 380.25 473.36 381.16 476.49 383.19L476.48 383.2ZM556.09 349.88C552.68 349.29 537.84 342.78 511.58 330.37L511.04 330.11C515.37 328.54 519.08 327.76 522.18 327.76C531.21 327.76 545.68 334.71 566.16 348.9C566.11 348.91 566.07 348.93 566.02 348.94C561.92 349.99 558.61 350.3 556.08 349.88H556.09ZM584.99 317.39C581.35 318.32 578.45 318.62 576.39 318.27C574.64 317.97 566.64 315.06 532.7 299.02L523.95 294.89C523.82 294.81 522.6 293.98 518.69 288.81C517.54 287.31 516.66 286.14 516.01 285.23C517.56 284.92 519.36 284.76 521.39 284.75C526.14 284.75 530.35 285.61 533.88 287.28C554.16 296.87 571.37 306.24 585.04 315.15C585.98 315.77 586.75 316.29 587.36 316.73C586.72 316.93 585.94 317.15 584.99 317.4V317.39Z" fill="#363636"/>
<path d="M228.69 136.31C228.81 136.17 228.76 136.24 228.69 136.31Z" fill="white"/>
<path d="M311.85 279.49C314.23 276.48 317 272.02 320.32 265.88L321.48 263.74L320.88 261.24C320.32 258.89 318.85 255.03 312.36 245.9C308.78 240.99 306.63 237.84 305.34 235.84C306.53 234.17 308.06 232.23 309.92 230.04C313.53 225.78 315.94 222.34 317.26 219.61C319.62 214.95 320.81 209.67 320.81 203.93C320.81 196.62 316.78 187.89 308.13 176.46C301.92 168.26 296.69 163.2 292.07 160.99C285.18 153.63 279.95 147.76 276.28 143.27C268.81 134.32 262.91 125.9 258.59 118.05C258.59 117.77 258.59 117.5 258.59 117.21C258.59 113.88 258.53 108.51 258.42 101.09C258.42 100.8 258.42 100.52 258.41 100.23C259.41 101.26 260.48 102.17 261.61 102.93C265.79 105.78 271.53 107.15 278.84 107.02C281.17 104.07 284.22 99.49 287.99 93.29C292.72 85.74 294.84 81.17 294.33 79.59C293.76 77.8 292.66 77.16 291.04 77.68C290.07 79.61 288.19 82.02 285.39 84.89C282.58 87.76 280.32 89.46 278.62 90.01C273.67 91.59 269.41 89.29 265.85 83.1C264.24 80.24 262.1 74.6 259.4 66.16C259.21 65.58 259.05 65.03 258.87 64.46C259.49 55.47 260.56 47.78 262.1 41.45C265.49 44.65 267.64 46.1 268.54 45.82C270.52 45.19 273.04 42.9 276.09 38.96C279.15 35.02 280.32 31.94 279.61 29.73C279.51 29.41 279.16 28.77 278.55 27.8C278.04 28.08 277.21 28.6 276.07 29.37C274.93 30.14 274.04 30.63 273.41 30.83C271.97 31.29 270.12 30.31 267.86 27.9C267.6 27.63 267.37 27.39 267.14 27.14L264.71 24.57C246.39 5.26 242.65 1.76 241.42 0.8L240.39 0L235.65 1.4L234.96 2.38C229.62 10.03 223.14 18.82 215.7 28.51L214.98 29.45L213.73 36.16L218.7 44.48L220.66 43.71C222.5 42.99 224.54 41.07 227.09 37.68C228.59 35.67 229.58 34.69 230.17 34.22L232.45 35.09C232.8 36.38 233.14 38.08 233.47 40.3V139.95C230.35 142.55 227.67 143.85 225.45 143.85C225.7 143.85 224.95 143.53 223.17 142.89C227.21 138 228.4 136.61 228.68 136.3C228.46 136.53 228.12 136.76 233.4 129.81V129.63C229.36 122.81 213.09 105.74 207.78 104.23C205.76 104.99 203.48 106.7 200.95 109.35C198.04 112.39 195.96 114.27 194.69 115.04C193.93 113.39 192.67 111.12 190.9 108.21C188.24 107.45 185.69 107.07 183.22 107.07C180.75 107.07 179.52 109.23 179.52 113.52V116.74C179.64 118.25 179.71 119.39 179.71 120.15C179.71 121.92 190.92 138.42 190.16 143.86L185.05 144.99L184.86 144.8C184.1 144.68 182.71 144.62 180.69 144.62C180.36 144.62 179.99 144.62 179.63 144.62C180.61 133.49 175.65 120.38 176.26 118.07L173.79 114.85C172.53 115.61 169.05 118.77 163.37 124.34C158.94 128.77 166.87 143.86 163.96 143.86C164.21 143.86 163.46 143.54 161.68 142.9C164.08 140 155.9 122.74 160.32 116.93V116.74C156.28 109.92 151.6 105.74 146.3 104.23C144.28 104.99 142 106.7 139.47 109.35C136.56 112.39 134.48 114.27 133.21 115.04C132.45 113.39 131.19 111.12 129.42 108.21C126.76 107.45 124.21 107.07 121.74 107.07C119.27 107.07 118.05 109.23 118.05 113.52V116.74C118.17 118.25 118.24 119.39 118.24 120.15C118.24 121.92 129.45 138.42 128.69 143.86L123.58 144.99L123.39 144.8C122.63 144.68 121.24 144.62 119.22 144.62C117.85 144.62 116.2 144.66 114.29 144.73C112.37 144.66 110.73 144.62 109.36 144.62C107.34 144.62 105.94 144.68 105.19 144.8L105 144.99L99.8898 143.86C99.1298 138.43 87.1598 121.93 87.1598 120.15C87.1598 119.39 87.2298 118.25 87.3498 116.74V114.39C92.3298 112.89 95.4598 111.9 96.7098 111.41C101.15 109.44 104.51 106.8 106.79 103.5C108.28 98.24 106.77 92.47 102.26 86.21C98.1398 80.46 93.4198 76.64 88.1098 74.77C78.9898 71.54 69.4198 71.14 59.4098 73.58C51.8098 75.55 42.8498 79.48 32.5598 85.36L7.06978 100.43L1.34977 116.6C-2.53023 127.56 1.97977 144.36 14.8698 167.03C14.8698 167.03 19.5298 172.98 26.5698 175.93C28.4398 176.72 31.0098 177.8 34.1998 179.32C24.5998 182.62 19.7798 185.46 19.7798 187.84C19.7798 189.3 22.2098 191.58 27.0298 194.69C31.8698 197.78 34.2798 200.07 34.2798 201.54C34.2798 202.36 33.1498 203.41 30.8598 204.71C27.1598 206.67 26.7498 208.14 29.5798 209.12C34.6998 208.63 42.5298 206.87 53.0398 203.86C63.5698 200.85 68.8098 198.69 68.8098 197.38C68.8098 195.75 66.7598 193.33 62.6298 190.11C62.3998 189.93 62.1998 189.76 61.9798 189.58C67.0098 189.85 75.7598 189.99 82.3598 188.4C90.8998 186.34 99.4098 184.26 107.85 182.01C108.05 181.88 108.27 181.74 108.47 181.61C112.47 181.61 116.94 181.6 121.73 181.59C122.27 182.29 122.56 182.99 122.56 183.69C122.56 185.65 116.89 188.17 105.5 191.27C94.1298 194.36 88.4398 196.52 88.4398 197.75C88.4398 202.15 94.8398 206.07 107.63 209.49C120.42 212.91 134.65 214.62 150.27 214.62C161.65 214.62 179.01 211.96 202.31 206.67C214.02 204.01 222.79 201.62 228.62 199.52C227.98 202.42 226.53 207.05 223.35 214.33C221.18 219.3 219.58 222.95 218.55 225.26L216.55 224.84V233.7L217.34 235.11C221.48 242.5 223.82 246.73 224.29 247.73C226.26 252.14 227.26 256.31 227.26 260.15C227.26 262.79 226.46 267.77 222.64 276.46C216.94 289.43 216.94 289.83 216.94 292.36V293.95L217.62 295.29C222.09 304.08 226.3 311.61 230.22 317.84C227.72 316.1 224.99 314.21 224 313.53C185.16 286.91 174.18 282.94 171.1 282.94C168.9 282.94 165.35 283.74 159.64 286.16C159.25 286.27 158.88 286.36 158.48 286.48C159.45 285.29 160.73 283.82 162.41 282C171.06 272.69 172.02 269.86 170.83 267.34C168.21 261.79 159.92 261.84 153.92 262.37C145.73 263.08 138.19 265.04 131.5 268.2C104.1 281.16 80.4898 294.62 61.3298 308.22C38.2898 324.56 22.5598 340.58 14.5798 355.82C8.85978 366.69 7.12977 373.27 8.95977 377.15L9.98977 379.32L17.6798 378.05L22.2898 374.79L22.6398 373.98C31.4898 353.71 40.2098 341.31 48.5798 337.11C54.0098 336.21 58.4098 336.48 61.6498 337.9C66.8798 340.02 70.4998 340.9 73.1098 340.74C73.6998 340.71 74.3298 340.64 74.9798 340.55C67.6898 346.25 62.0498 351.1 58.0998 355.09C46.1998 365.6 37.6298 375.83 32.4198 385.78C27.3998 395.32 25.5398 401.49 26.8598 404.28L31.4698 403.52L34.7598 401.2C44.0998 379.8 53.3998 366.91 62.6198 362.55C68.9098 361.45 74.0198 361.76 77.9498 363.49C82.5198 365.34 85.8498 366.2 87.9298 366.07C93.0598 365.78 101.11 363.05 112.08 357.86C119.4 354.4 128.91 350.2 140.59 345.28C149.8 341.43 156.82 338.48 161.71 336.43C165.11 338.39 168.73 340.62 172.6 343.15C186.77 352.42 196.51 360.04 202.13 366.28C201.44 366.18 200.73 366.09 199.98 366.02C192.27 365.26 184.77 367.08 177.71 371.42L176.47 372.18L175.64 373.09C173.78 375.13 171.44 378.04 168.48 382.01C166.89 384.14 165.46 385.98 164.21 387.51C161.88 387.67 159.82 387.94 158.03 388.3C155.54 388.82 152.01 389.83 147.26 391.38L145.6 391.92L144.08 393.19C142.65 394.38 140.41 396.52 135.76 402.55C133.28 405.82 131.66 407.87 130.61 409.15C129.26 409.48 127.65 409.81 125.81 410.15C122.24 410.8 119.45 411.49 117.38 412.24C113.81 413.47 110.07 415.35 106.29 417.81C101.47 420.95 96.5598 426 90.8498 433.72C85.1298 441.46 83.0398 445.95 84.2698 447.86C85.2098 449.31 86.7198 450.12 88.7598 450.3C74.8898 460.3 70.1398 465.19 68.5698 467.49L69.0598 467.91C57.9798 471.68 48.7198 475.78 41.3298 480.2C27.9598 488.46 18.1598 499.28 11.8998 512.65C8.25977 520.42 7.34977 529.63 9.18977 540.26C11.1698 551.86 15.8198 559.66 23.1298 563.68C29.1498 564.73 35.6098 563.9 42.5098 561.2C44.7698 560.2 50.6798 557.03 60.2898 551.75C56.2698 545.13 52.3098 538.39 48.4198 531.52C48.2398 531.22 48.0698 530.93 47.8998 530.64C49.0598 531.23 50.3498 531.88 51.7998 532.6C59.8598 536.53 61.7098 536.86 62.9098 536.86C63.6398 536.86 65.5898 536.86 82.8298 533.83C100.26 530.77 101.17 530.36 101.82 530.06L102.59 529.71L105.35 525.91L103.31 523.99C102.69 523.4 102.46 523.19 94.3298 520.64C88.5698 518.82 84.2398 517.33 81.4698 516.19C79.6998 515.46 78.4998 514.88 77.6898 514.43C78.3098 514.14 79.1398 513.79 80.2698 513.39L91.2998 509.59C93.4798 508.67 99.4398 506.11 99.4398 501C99.4398 499.14 98.7698 497.26 97.3898 495.24C96.0098 493.24 94.1998 491.82 92.0098 491C90.4198 490.41 86.7598 489.15 81.0598 487.25C71.2898 483.96 70.7098 483.96 70.0298 483.96C69.4298 483.96 68.7498 484.01 67.9898 484.09C78.5998 479.08 90.1098 479.47 102.51 485.27C117.33 492.21 128.82 504.86 136.98 523.21C145.12 541.55 145.79 558 138.96 572.58C115.51 622.66 66.4998 652.01 46.8498 661.96C27.7898 667.81 0.759775 670.72 13.1298 673.66C17.9798 674.81 23.6098 675.47 29.2598 675.81L29.6498 676.14C31.0398 676.13 32.5098 676.09 34.0298 676.03C48.1198 676.49 61.0598 675.31 61.0598 675.31C64.3598 674.44 67.6898 673.32 71.0298 672.07C115.42 664.95 173.78 648.35 205.78 621C249.9 583.27 272.28 548.31 272.28 517.1C272.28 482.61 260.58 455.17 237.48 435.24C238.04 434.95 238.45 434.79 238.66 434.79C239.42 434.79 240.56 434.86 242.07 434.98H245.29C249.58 434.98 251.74 433.75 251.74 431.29C251.74 428.83 251.35 426.27 250.6 423.61C247.68 421.84 245.42 420.58 243.77 419.82C244.54 418.56 246.42 416.47 249.46 413.56C252.11 411.03 253.83 408.75 254.58 406.73C253.07 401.42 248.89 396.75 242.07 392.71H241.88C236.06 397.13 218.81 412.14 215.91 414.54C215.28 412.77 214.95 412.01 214.95 412.26C214.95 409.35 230.05 394.1 234.47 389.67C240.04 383.98 243.2 380.51 243.96 379.25L240.74 376.78C237.82 377.54 217.67 392.61 206.05 398.8C201.77 401.08 198.2 403.05 195.32 404.71L195.27 404.6C196.19 403.56 197.07 402.55 197.91 401.58C219.87 385.27 238.63 371.71 253.65 361.29L254.02 361.07C258.98 358.5 264.5 355.33 270.42 351.67C271.89 350.77 273.29 349.89 274.66 349.02C282.64 348.74 291.51 345.59 301.05 339.64C313.52 331.95 320.12 322.7 320.66 312.18L320.75 310.33L319.95 308.81C318.16 305.42 315.15 300.91 310.75 295C308.38 291.83 306.41 289.03 304.87 286.64C307.78 284.05 310.12 281.67 311.85 279.5V279.49ZM76.5098 315.14C90.1798 306.24 107.4 296.86 127.67 287.27C131.21 285.6 135.41 284.75 140.16 284.74C142.19 284.75 143.99 284.91 145.54 285.22C144.88 286.13 144.01 287.3 142.86 288.8C138.95 293.96 137.73 294.8 137.6 294.88L128.85 299.01C94.9098 315.05 86.9098 317.96 85.1598 318.26C83.0998 318.61 80.1998 318.31 76.5598 317.38C75.6098 317.14 74.8298 316.91 74.1898 316.71C74.8098 316.28 75.5698 315.75 76.5098 315.13V315.14ZM145.24 330.37C118.98 342.79 104.15 349.29 100.73 349.88C98.1998 350.31 94.8898 349.99 90.7898 348.94C89.8798 348.71 89.0698 348.48 88.3398 348.25C109.68 333.3 124.67 325.99 133.94 325.99C137.62 325.99 142.13 327.08 147.54 329.28L145.24 330.37ZM176.21 383.2C179.34 381.17 183.13 380.26 187.49 380.52C190.44 380.69 192.64 381.22 194.1 382.1C189.52 385.09 183.47 388.99 175.83 393.87C175.64 393.33 175.41 392.84 175.11 392.38C174.94 392.12 174.59 391.67 174.08 391.04C173.6 390.46 173.24 389.99 173.01 389.64C171.02 386.58 174.4 384.38 176.21 383.2ZM142.58 405.07C145.55 403.14 149.26 402.76 151.88 402.79C155.59 402.79 157.92 403.43 158.84 404.69C153.49 408.09 147.65 411.79 141.29 415.82C141.04 414.56 140.58 413.37 139.87 412.28C139.85 412.25 139.45 411.79 138.66 410.9C138.45 410.65 138.29 410.4 138.19 410.15C141.28 406.14 142.57 405.09 142.58 405.08V405.07ZM109.09 434.43C104.13 436.48 102.18 437.14 101.56 437.33C99.0198 438.04 98.3798 437.59 98.1198 437.19C97.7598 436.64 98.0698 435.58 99.0198 434.05C100.29 432.03 101.52 431.22 101.93 430.96C114.15 423.01 121.05 421.65 124.26 426.57C120.21 429.14 116.45 431.55 112.96 433.82L113.93 432.42L109.08 434.42L109.09 434.43ZM72.9398 496.13H79.0098C79.3298 496.13 80.2698 496.24 82.2098 497.26C81.5198 497.63 80.5198 498.11 79.0898 498.67L67.1698 503.06C63.1598 504.7 58.6898 507.06 58.6898 511.07C58.6898 513.42 59.7698 516.76 64.8998 519.31C66.2498 520 68.8898 520.93 73.3798 522.31C72.7998 522.42 72.1798 522.54 71.5198 522.66C63.3698 524.17 60.3698 524.48 59.2798 524.48C56.3398 524.48 52.4198 523.31 47.6498 520.99L46.2698 520.68L44.0298 520.96L43.5898 521.16C42.4498 517.1 42.5598 513.63 43.9198 510.74C46.2898 505.68 48.9298 501.27 51.8498 497.47C53.1998 498.03 54.7098 498.61 56.4198 499.25L57.1098 499.51L57.8398 499.44C58.7898 499.35 60.6398 499.04 66.5798 497.52C71.6198 496.25 72.7598 496.15 72.9498 496.14L72.9398 496.13ZM187.43 587.78C181.54 595.76 172.96 604.21 161.81 613.04C165.89 607.13 168.54 602.45 168.54 602.45C170.27 600 171.89 597.2 173.37 594.04C175.3 589.92 177.68 583.25 180.51 574.05C183.33 564.86 185.95 558.3 187.65 554.06C191.97 543.26 190.5 531.83 190.5 531.83C179.68 493.57 166.25 470.69 150.2 463.18L136.05 456.55C153.75 457.13 170.08 463.11 184.64 474.37C200.23 486.44 208.14 500.43 208.14 515.95C208.14 544.75 201.18 568.92 187.45 587.8L187.43 587.78ZM235.04 411.66C235.92 412.55 236.37 413.24 236.37 413.75C236.37 415.14 235.52 416.81 233.81 418.77C233 419.7 229.32 423.03 225.53 426.26C224.26 425.43 222.98 424.61 221.67 423.82L220.04 422.84V420.73C224.81 416.61 232.24 410.33 232.97 410.33C233.48 410.33 234.17 410.78 235.05 411.66H235.04ZM295.86 184.93C298.45 187.68 298.45 189.56 298.45 190.18C298.45 205.04 294.1 213.3 284.58 216.01C285.16 203.76 285.46 193.94 285.46 186.76V185.04C285.81 184.52 286.15 184.09 286.48 183.72L288.3 183.43C290.15 183.14 291.73 182.87 293.08 182.64C293.97 183.16 294.9 183.93 295.86 184.94V184.93ZM282.71 265.21C282.71 259.77 282.89 252.48 283.26 243.45C284.01 243.48 284.76 243.53 285.53 243.53C285.62 243.53 287.18 243.43 290.2 243.19C291.04 243.14 291.79 243.14 292.49 243.21C296.81 249.29 297.25 251.38 297.28 251.41C297.28 255.91 292.88 260.13 289.14 262.9C286.9 264.61 284.76 265.94 282.73 266.93C282.73 266.35 282.71 265.8 282.71 265.21ZM81.4998 144.98H80.1698C79.1598 144.98 77.9298 144.19 76.4798 142.62C75.0298 141.05 62.6998 126.86 62.6998 125.84C62.6998 125.33 63.1498 124.64 64.0298 123.76C64.9198 122.88 65.6098 122.43 66.1198 122.43C67.5098 122.43 69.1798 123.28 71.1398 124.99C73.0998 126.69 85.6698 141.14 85.6698 142.52C85.6698 144.16 84.2798 144.97 81.4998 144.97V144.98ZM284.87 294.61C286.09 294.55 287.1 294.52 287.88 294.52C297.28 294.52 297.28 299.64 297.28 302.39C297.28 306.39 294.87 310.33 290.13 314.14C287.84 308.47 286.09 301.97 284.86 294.61H284.87ZM195.75 125C197.71 123.29 199.38 122.44 200.77 122.44C201.28 122.44 201.97 122.89 202.86 123.77C203.74 124.65 204.19 125.34 204.19 125.85C204.19 126.87 215.05 141.05 213.6 142.63C212.15 144.2 210.92 144.99 209.9 144.99H208.57C205.79 144.99 204.4 144.17 204.4 142.54C204.4 141.15 193.79 126.7 195.75 125.01V125ZM134.28 125C136.24 123.29 137.91 122.44 139.3 122.44C139.81 122.44 140.5 122.89 141.39 123.77C142.27 124.65 142.72 125.34 142.72 125.85C142.72 126.69 150.08 136.45 151.87 140.75C150.73 141.97 149.37 143.49 148.04 144.99H147.1C144.32 144.99 142.93 144.17 142.93 142.54C142.93 141.15 132.32 126.7 134.28 125.01V125ZM33.6198 104.5C36.6698 95.87 41.9298 90.26 49.3698 87.67C55.9898 85.34 63.6898 85.74 72.4798 88.85C75.9598 90.08 78.5098 93.96 80.1198 100.51C80.7498 102.73 81.3598 104.94 81.9498 107.14C80.0098 107.27 78.0198 107.63 75.9598 108.22C74.1898 111.14 72.9298 113.4 72.1698 115.05C70.9098 114.28 68.8198 112.4 65.9098 109.36C63.3798 106.71 61.0998 104.99 59.0798 104.24C53.7698 105.75 49.0998 109.93 45.0598 116.75V116.94C49.4798 122.76 64.4898 140.01 66.8898 142.91C65.1198 143.54 64.3598 143.87 64.6098 143.87C61.6998 143.87 46.4498 128.77 42.0198 124.35C36.3398 118.78 32.8598 115.62 31.5998 114.86L31.4398 115.08C31.6898 111.44 32.4098 107.91 33.6098 104.51L33.6198 104.5ZM55.6098 160.92C46.6698 157.08 39.9598 149.47 35.4798 138.06C33.3398 132.61 32.0298 127.36 31.5498 122.33C36.2098 129.58 46.3598 143.74 51.1698 152.76C52.8098 155.85 54.2898 158.56 55.6198 160.92H55.6098ZM162.23 207.15C155.12 207.15 148.02 205.2 140.9 201.28C134.65 197.86 131.51 195 131.51 192.72C131.51 190.68 135.07 188.6 142.18 186.49C144.16 185.91 150.7 184.32 161.79 181.71C161.85 181.62 161.89 181.56 161.94 181.48C174.8 181.45 187.16 181.4 196.91 181.35C197.66 185.77 198.04 187.93 198.04 187.83C198.04 200.71 186.1 207.15 162.22 207.15H162.23Z" fill="#363636"/>
</g>
<defs>
<clipPath id="clip0_1499_71">
<rect width="658.75" height="676.14" fill="white"/>
</clipPath>
</defs>
</svg>
