<?xml version="1.0" encoding="UTF-8"?>
<svg id="Layer_1" data-name="Layer 1" xmlns="http://www.w3.org/2000/svg" version="1.1" viewBox="0 0 1577.75 784.78">
  <defs>
    <style>
      .cls-1 {
        fill: #231f20;
        stroke-width: 0px;
      }
    </style>
  </defs>
  <path class="cls-1" d="M274.37,271.9l-1.89,5.28-22.62,19.61c-11.57,9.8-18.98,14.71-22.24,14.71-12.32,0-21.49-10.69-27.53-32.05-4.02-14.58-6.03-30.29-6.03-47.13,0-46.5,1.38-76.67,4.14-90.5,5.03-25.89,18.48-53.41,40.35-82.58l-2.26-1.51c-1.01.51-8.17,4.27-21.49,11.31-8.8,4.52-16.59,6.79-23.38,6.79-6.03,0-15.21-1.94-27.52-5.85-12.32-3.89-21.49-5.84-27.52-5.84s-15.02,4.02-26.96,12.06c-11.94,8.05-19.55,14.96-22.82,20.74,3.52,10.31,6.91,20.49,10.18,30.54,4.27,13.08,6.41,23.38,6.41,30.92,0,17.6-3.77,32.68-11.31,45.25-1,1.51-10.43,13.95-28.28,37.33v1.13c10.56,10.31,25.89,22,46.01,35.06,3.26-1.25,7.78-4.45,13.57-9.61,5.78-5.15,10.56-8.35,14.32-9.62l6.04,4.9-.38,2.64c-7.3,8.55-25.78,23.76-55.43,45.63-21.87-14.33-33.44-22-34.69-23-13.83-9.55-24.51-18.22-32.05-26.02,5.52-9.05,13.39-17.59,23.57-25.64,10.18-8.04,16.9-14.71,20.17-19.98,5.52-9.54,8.3-23.62,8.3-42.23,0-10.8-7.73-26.96-23.19-48.45-15.46-21.49-23.19-38.01-23.19-49.58,0-5.28,8.92-15.08,26.77-29.41,15.84-12.32,27.65-20.37,35.44-24.14l5.66,4.15c-1.26,2.26-5.66,7.67-13.2,16.21-4.78,5.54-7.16,12.32-7.16,20.36,0,7.3,2.13,12.82,6.4,16.59,6.79-2.76,19.73-12.31,38.84-28.66,14.83-12.82,29.54-19.23,44.12-19.23,6.79,0,16.97,2.14,30.54,6.41,13.57,4.27,23.75,6.4,30.54,6.4,4.53,0,9.93-1.5,16.22-4.52,8.04-4.27,13.06-6.66,15.08-7.17l5.65,6.79c-18.1,34.68-27.15,72.01-27.15,111.98v49.02c0,22.63.38,36.71,1.13,42.23,2.51,20.36,8.68,30.54,18.48,30.54,1.76,0,4.53-1.31,8.3-3.96,3.78-2.64,6.41-4.08,7.92-4.34l4.15,6.41Z"/>
  <path class="cls-1" d="M440.27,208.93c0,22.62-3.52,39.46-10.56,50.53-4.03,6.29-12.58,13.7-25.64,22.24-13.08,8.55-23.26,17.73-30.55,27.52-3.01.76-9.67,1.13-19.98,1.13s-24.51-11.31-42.61-33.93c-16.84-21.36-25.26-42.73-25.26-64.1,0-12.82,3.02-26.14,9.05-39.97,6.03-13.82,13.82-24.76,23.38-32.8,3.01-2.51,7.78-5.41,14.32-8.68,6.53-3.26,11.06-5.9,13.57-7.91,8.79-6.53,13.44-9.8,13.95-9.8,20.61,0,39.46,11.06,56.56,33.18,15.83,20.61,23.75,41.47,23.75,62.59ZM416.14,232.68c0-15.83-8.17-33.68-24.51-53.54-16.34-19.86-32.18-29.79-47.51-29.79-8.8,0-16.53,3.78-23.19,11.31-6.66,7.54-9.99,15.84-9.99,24.89,0,19.36,7.67,38.46,23,57.31,16.09,19.61,33.56,29.41,52.41,29.41,9.8,0,17.47-4.27,23-12.82,4.52-7.29,6.79-16.22,6.79-26.77Z"/>
  <path class="cls-1" d="M325.27,635.4l-2.27,6.79-46,34.69c-9.31-2.52-17.86-10.56-25.64-24.14-7.3-12.56-10.94-24-10.94-34.31,0-6.28-4.84-21.55-14.51-45.81-9.68-24.26-16.91-39.02-21.68-44.31-5.28,0-20.62,11.82-46.01,35.44-16.09,15.08-32.18,30.3-48.26,45.63l6.4,7.91c4.27,1.01,10.56,5.16,18.86,12.45,7.28,6.28,13.95,9.42,19.98,9.42l1.5,3.02,2.64-2.64c5.52-5.03,9.55-8.55,12.06-10.56,5.03-3.77,9.67-6.53,13.95-8.3l7.54,8.3c-9.56,9.05-18.98,17.98-28.28,26.77-11.57,10.56-21.75,18.72-30.54,24.51h-1.88c-18.1-11.81-44.24-30.67-78.43-56.56l2.27-5.28c22.11-2.01,43.54-14.39,64.29-37.14,20.74-22.75,31.1-45.31,31.1-67.68,0-18.86-4.4-35.7-13.2-50.53-10.31-17.35-24.26-26.02-41.85-26.02-11.31,0-21.87,2.52-31.67,7.54-11.57,6.28-17.35,14.7-17.35,25.26,0,8.55,2.01,14.96,6.04,19.23,2.01,2.01,6.41,4.66,13.2,7.92,6.03,2.77,10.3,5.91,12.82,9.42l-27.15,26.4c-20.87-6.53-31.29-22.11-31.29-46.76,0-12.82,3.52-23.75,10.56-32.8,4.77-5.78,12.95-12.57,24.51-20.36,13.06-8.54,21.99-15.21,26.77-19.98,2.51-3.52,5.15-7.16,7.91-10.94,3.52-4.77,6.91-7.16,10.18-7.16,15.08,0,29.66,4.53,43.74,13.57,13.07,8.3,24.14,19.1,33.18,32.43h.38c3.26,0,15.08-6.79,35.44-20.36,24.14-16.08,37.07-24.63,38.84-25.64l1.88.38c24.38,28.16,39.97,51.41,46.76,69.76l-1.13,4.14c-10.82,8.55-29.54,20.24-56.19,35.07v1.51c0,2.51,8.42,24.26,25.26,65.23,16.59,39.72,26.14,61.96,28.66,66.73l3.39.38c1.75,0,4.96-1.51,9.62-4.53,4.65-3.02,7.98-4.77,9.99-5.28l4.53,7.16ZM260.79,472.51c-2.01-5.52-6.66-13.7-13.95-24.5-8.05-11.31-14.2-18.1-18.48-20.36-16.59,9.05-25.02,13.7-25.26,13.95-11.06,7.04-16.59,13.45-16.59,19.23,0,3.78.5,9.37,1.51,16.78,1,7.42,1.51,13.01,1.51,16.78,0,2.27-.51,5.66-1.51,10.18-1.01,4.53-1.51,7.92-1.51,10.18,1.26.76,2.51,1.13,3.77,1.13s13.13-6.47,35.64-19.41c22.49-12.95,34.12-20.93,34.87-23.95Z"/>
  <path class="cls-1" d="M461.76,541.51c0,3.78-12.7,11.19-38.09,22.24-27.65,12.07-42.98,19.86-46,23.38v9.8c0,28.16,10.18,42.23,30.54,42.23,10.56,0,24.26-5.65,41.1-16.97,4.27,0,6.41,2.4,6.41,7.16,0,2.77-9.67,10.94-29.03,24.51-19.36,13.57-30.79,20.36-34.31,20.36-6.79,0-15.34-2.89-25.65-8.67-15.08-8.54-24.5-21.24-28.27-38.09-1.51-7.28-2.27-23.75-2.27-49.39,0-28.4,2.51-47,7.54-55.8,6.03-10.56,21.74-21.24,47.13-32.05,18.85-7.79,30.66-11.56,35.44-11.31l5.28.38c5.52,10.56,11.06,21.25,16.59,32.05,9.05,17.86,13.57,27.91,13.57,30.17ZM418.77,546.04c0-5.03-1.76-10.3-5.28-15.83-3.27-4.77-6.54-9.43-9.8-13.96l-1.88-6.79c-.75-2.76-2.64-4.14-5.65-4.14-13.08,0-19.61,15.71-19.61,47.13v14.71c1,.75,1.75,1.13,2.27,1.13,3.77,0,11.36-2.95,22.81-8.86,11.44-5.91,17.15-10.37,17.15-13.39Z"/>
  <path class="cls-1" d="M591.47,397.48c-1.26,5.53-5.53,13.57-12.82,24.13-7.79,11.82-13.95,17.73-18.48,17.73s-11.5-1.13-20.92-3.39c-9.43-2.27-16.78-3.27-22.06-3.02l-6.41,8.67v17.72c8.3,11.07,17.21,17.86,26.77,20.37,5.03,1.26,16.34,1.88,33.93,1.88,9.3,0,13.95,5.91,13.95,17.72,0,5.53-6.03,9.43-18.1,11.69-8.8,1.26-17.47,2.39-26.01,3.39,0,37.46-1.13,76.68-3.39,117.64-3.27,60.08-8.05,97.53-14.33,112.36h-9.42c-4.78-17.6-8.8-59.71-12.06-126.31-3.27-63.59-6.29-98.79-9.05-105.58-1.26-.5-5.16-1.63-11.69-3.39-4.02-1-5.91-3.52-5.65-7.54,6.79-7.29,11.56-17.6,14.33-30.92,4.27-22.87,6.66-35.07,7.16-36.58,4.77-14.82,13.2-27.9,25.26-39.21h13.57c2.77,0,7.66,1.26,14.71,3.77,7.03,2.52,12.31,3.78,15.83,3.78,7.79,0,12.44-3.9,13.95-11.69h7.54l3.39,6.79Z"/>
  <path class="cls-1" d="M677.43,399.36c-1.5,4.78-9.3,12.95-23.37,24.5-8.3,6.79-12.45,70.64-12.45,191.55,0,13.83,4.27,20.74,12.82,20.74,1.51,0,4.08-1.13,7.73-3.39,3.65-2.26,6.22-3.64,7.73-4.14l6.41,5.28c-2.77,4.53-9.43,11.63-19.98,21.31-10.56,9.67-18.1,15.65-22.63,17.91-25.13-15.33-39.96-27.27-44.49-35.82,2.77-3.26,6.79-8.3,12.06-15.08,3.02-4.01,4.53-44.24,4.53-120.65,0-22.87-1.51-40.6-4.53-53.17-3.02-3.26-7.04-5.15-12.06-5.65v-9.43l5.65-5.28c9.55-.25,35.31-11.56,77.3-33.93l5.28,5.28Z"/>
  <path class="cls-1" d="M813.92,541.51c0,3.78-12.7,11.19-38.09,22.24-27.65,12.07-42.98,19.86-46,23.38v9.8c0,28.16,10.18,42.23,30.54,42.23,10.56,0,24.26-5.65,41.1-16.97,4.27,0,6.41,2.4,6.41,7.16,0,2.77-9.67,10.94-29.03,24.51-19.36,13.57-30.79,20.36-34.31,20.36-6.79,0-15.34-2.89-25.65-8.67-15.08-8.54-24.5-21.24-28.27-38.09-1.51-7.28-2.27-23.75-2.27-49.39,0-28.4,2.51-47,7.54-55.8,6.03-10.56,21.74-21.24,47.13-32.05,18.85-7.79,30.66-11.56,35.44-11.31l5.28.38c5.52,10.56,11.06,21.25,16.59,32.05,9.05,17.86,13.57,27.91,13.57,30.17ZM770.93,546.04c0-5.03-1.76-10.3-5.28-15.83-3.27-4.77-6.54-9.43-9.8-13.96l-1.88-6.79c-.75-2.76-2.64-4.14-5.65-4.14-13.08,0-19.61,15.71-19.61,47.13v14.71c1,.75,1.75,1.13,2.27,1.13,3.77,0,11.36-2.95,22.81-8.86,11.44-5.91,17.15-10.37,17.15-13.39Z"/>
  <path class="cls-1" d="M950.42,509.46c0,5.28-5.47,11.13-16.4,17.54-10.93,6.4-19.17,9.61-24.7,9.61-2.51,0-6.79-4.64-12.82-13.95-6.04-9.3-10.56-13.95-13.57-13.95-8.8,0-13.2,21.87-13.2,65.61,0,20.11.87,33.81,2.64,41.1,4.02,15.84,12.95,23.75,26.77,23.75,4.77,0,11.88-2.13,21.31-6.41,9.43-4.27,16.15-8.16,20.17-11.68,4.53,0,6.79,2.14,6.79,6.4,0,3.78-9.05,12.19-27.15,25.26-14.58,10.82-26.02,18.61-34.31,23.38-18.61-4.77-32.06-11.69-40.35-20.74-9.31-10.05-13.96-24.26-13.96-42.61v-63.72c0-15.08,9.93-30.17,29.79-45.25,18.85-14.33,36.07-21.49,51.66-21.49.75.76,3.77,5.78,9.05,15.08,3.77,6.79,7.67,10.18,11.69,10.18,1.75,0,4.4-.43,7.92-1.32,3.52-.87,6.03-1.44,7.54-1.7.76,2.52,1.13,4.15,1.13,4.9Z"/>
  <path class="cls-1" d="M1054.1,634.27c-2.77,4.78-9.42,11.75-19.98,20.93-10.56,9.18-18.47,14.89-23.75,17.15-5.53-1-14.08-5.97-25.64-14.89-11.57-8.92-18.85-15.89-21.87-20.92,8.3-9.8,12.45-28.15,12.45-55.05,0-7.28-.32-18.35-.95-33.18-.63-14.83-.95-26.01-.95-33.56-5.03-1-8.04-1.75-9.05-2.26-3.02-1-5.28-3.02-6.79-6.04,10.81-13.82,18.35-24,22.62-30.54,8.55-12.82,13.96-24.13,16.22-33.93,1-4.27,2.01-8.79,3.02-13.57,1-4.77,2.51-8.79,4.53-12.06l4.9-2.26,4.53,2.26v64.85c2.77,4.28,9.55,5.29,20.36,3.02l1.88,1.51h14.71c2.26,6.04,3.39,10.94,3.39,14.71,0,8.55-7.54,12.82-22.62,12.82-2.01,0-4.9-.12-8.67-.38h-6.79l-1.13.76c-1.51,37.96-2.27,60.08-2.27,66.36v44.5c5.53,6.28,11.18,10.93,16.97,13.95,2.26-.76,5.34-2.7,9.23-5.85,3.89-3.14,7.1-5.09,9.62-5.84l4.14,2.64,1.88,4.9Z"/>
  <path class="cls-1" d="M1148.74,635.02c-.51,2.51-5.91,9.23-16.21,20.17-10.31,10.93-16.97,17.28-19.98,19.04-21.12-4.53-31.67-31.54-31.67-81.07,0-9.3.43-21.49,1.32-36.58.87-15.08,1.31-24.5,1.31-28.28,0-8.54-.63-13.32-1.88-14.32-5.78,3.02-9.05,4.53-9.8,4.53-5.03,0-7.54-2.14-7.54-6.41,0-2.27,5.4-8.23,16.22-17.91,10.8-9.67,17.84-15.14,21.11-16.4,4.53,2.52,11.13,7.42,19.8,14.71,8.67,7.29,13.88,12.82,15.65,16.59l-.75,3.02-11.31,9.42c-2.77,7.54-4.14,32.94-4.14,76.17,0,21.62,2.13,34.06,6.4,37.33l3.78.38c1.25,0,3.08-.62,5.47-1.88,2.38-1.26,4.21-1.88,5.47-1.88,3.02,0,5.28,1.13,6.79,3.39ZM1133.28,419.72c0,5.03-1.51,9.68-4.53,13.95-1.26,1.76-7.91,6.92-19.98,15.46-12.06,8.55-18.85,12.82-20.36,12.82-6.28,0-9.42-1.75-9.42-5.28,0-2.77.87-5.53,2.64-8.3,1.75-2.77,3.39-5.52,4.9-8.3,6.53-13.57,10.05-20.61,10.56-21.12,5.28-8.04,11.68-12.06,19.23-12.06,4.01,0,7.86,1.2,11.5,3.58,3.64,2.4,5.47,5.47,5.47,9.24Z"/>
  <path class="cls-1" d="M1313.89,572.81c0,22.62-3.52,39.46-10.56,50.53-4.03,6.29-12.58,13.7-25.64,22.24-13.08,8.55-23.26,17.73-30.55,27.52-3.01.76-9.67,1.13-19.98,1.13s-24.51-11.31-42.61-33.93c-16.84-21.36-25.26-42.73-25.26-64.1,0-12.82,3.02-26.14,9.05-39.97,6.03-13.82,13.82-24.76,23.38-32.8,3.01-2.51,7.78-5.41,14.32-8.68,6.53-3.26,11.06-5.9,13.57-7.91,8.79-6.53,13.44-9.8,13.95-9.8,20.61,0,39.46,11.06,56.56,33.18,15.83,20.61,23.75,41.47,23.75,62.59ZM1289.76,596.56c0-15.83-8.17-33.68-24.51-53.54-16.34-19.86-32.18-29.79-47.51-29.79-8.8,0-16.53,3.78-23.19,11.31-6.66,7.54-9.99,15.84-9.99,24.89,0,19.36,7.67,38.46,23,57.31,16.09,19.61,33.56,29.41,52.41,29.41,9.8,0,17.47-4.27,23-12.82,4.52-7.29,6.79-16.22,6.79-26.77Z"/>
  <path class="cls-1" d="M1514.1,638.79c-14.32,15.34-26.64,26.77-36.95,34.31-18.35,0-27.52-26.01-27.52-78.05,0-8.3.25-18.66.76-31.1.5-12.45.75-20.04.75-22.82,0-8.79-.63-15.08-1.88-18.85-2.26-6.79-6.92-10.18-13.95-10.18-13.33,8.3-22.76,15.59-28.28,21.87-8.05,9.05-12.06,19.6-12.06,31.67,0,6.53.75,16.34,2.26,29.41,1.51,13.08,2.26,22.88,2.26,29.41,0,29.66-13.45,44.49-40.35,44.49l-2.26-1.88c.25-5.28.5-17.97.75-38.09.25-25.64,0-47.25-.75-64.85-.75-24.38-2.39-40.22-4.9-47.51l-4.53-3.39-12.82,6.41-6.41-7.16c2.01-2.77,8.86-9.17,20.55-19.23,11.69-10.05,18.41-15.08,20.17-15.08,8.04,0,14.95,5.28,20.74,15.83,4.77,9.05,7.16,18.1,7.16,27.15,5.52,0,15.58-7.16,30.17-21.49,14.57-14.32,24.25-21.49,29.03-21.49,2.51,0,11.06,5.72,25.64,17.15,14.58,11.44,22.11,18.04,22.63,19.8-6.54,11.31-9.93,16.97-10.18,16.97-3.02,6.28-4.53,12.69-4.53,19.23v66.37c0,8.55,1.26,13.44,3.77,14.7.76.25,5.78.38,15.08.38,2.51,0,4.4,2.02,5.65,6.04ZM1356.87,667.07v-.38c0,5.53,0,5.65,0,.38Z"/>
</svg>